<svg width="16" height="16" viewBox="0 0 16 16" fill="none" xmlns="http://www.w3.org/2000/svg">
<g clip-path="url(#clip0_119_1771)">
<path d="M0.571533 7.99999C0.571533 9.46922 1.00721 10.9055 1.82347 12.1271C2.63974 13.3487 3.79992 14.3008 5.15731 14.8631C6.51471 15.4253 8.00835 15.5725 9.44935 15.2858C10.8903 14.9992 12.214 14.2917 13.2529 13.2528C14.2918 12.2139 14.9993 10.8902 15.2859 9.44923C15.5726 8.00823 15.4255 6.51459 14.8632 5.1572C14.301 3.7998 13.3488 2.63962 12.1272 1.82336C10.9056 1.00709 9.46934 0.571416 8.0001 0.571416C5.87207 0.569061 3.82518 1.38782 2.28582 2.85713" stroke="#057EE7" stroke-linecap="round" stroke-linejoin="round"/>
<path d="M2.85732 0.571411L2.28589 2.85713L4.5716 3.42855M8.00017 3.99998V8.57141L5.02875 10.0571" stroke="#057EE7" stroke-linecap="round" stroke-linejoin="round"/>
</g>
<defs>
<clipPath id="clip0_119_1771">
<rect width="16" height="16" fill="white"/>
</clipPath>
</defs>
</svg>
