<svg width="40" height="40" viewBox="0 0 40 40" fill="none" xmlns="http://www.w3.org/2000/svg">
<path d="M7.5 35C6.83333 35 6.25 34.75 5.75 34.25C5.25 33.75 5 33.1667 5 32.5V6.25C5 5.89583 5.12049 5.59896 5.36146 5.35938C5.60246 5.11979 5.90107 5 6.25729 5C6.61354 5 6.90972 5.11979 7.14583 5.35938C7.38194 5.59896 7.5 5.89583 7.5 6.25V32.5H33.75C34.1042 32.5 34.401 32.6205 34.6406 32.8615C34.8802 33.1025 35 33.4011 35 33.7573C35 34.1135 34.8802 34.4097 34.6406 34.6458C34.401 34.8819 34.1042 35 33.75 35H7.5ZM11.8607 29.375C11.5091 29.375 11.2153 29.2552 10.9792 29.0156C10.7431 28.776 10.625 28.4792 10.625 28.125V16.7083C10.625 16.3542 10.7439 16.0573 10.9818 15.8177C11.2196 15.5781 11.5143 15.4583 11.8659 15.4583H14.3476C14.6992 15.4583 14.9931 15.5781 15.2292 15.8177C15.4653 16.0573 15.5833 16.3542 15.5833 16.7083V28.125C15.5833 28.4792 15.4644 28.776 15.2266 29.0156C14.9887 29.2552 14.694 29.375 14.3425 29.375H11.8607ZM20.1107 29.375C19.7591 29.375 19.4653 29.2552 19.2292 29.0156C18.9931 28.776 18.875 28.4792 18.875 28.125V8.125C18.875 7.77083 18.9939 7.47396 19.2318 7.23438C19.4696 6.99479 19.7643 6.875 20.1159 6.875H22.5976C22.9492 6.875 23.2431 6.99479 23.4792 7.23438C23.7153 7.47396 23.8333 7.77083 23.8333 8.125V28.125C23.8333 28.4792 23.7144 28.776 23.4766 29.0156C23.2388 29.2552 22.944 29.375 22.5925 29.375H20.1107ZM28.194 29.375C27.8425 29.375 27.5486 29.2552 27.3125 29.0156C27.0764 28.776 26.9583 28.4792 26.9583 28.125V23.5417C26.9583 23.1875 27.0773 22.8906 27.3151 22.651C27.5529 22.4115 27.8476 22.2917 28.1992 22.2917H30.681C31.0325 22.2917 31.3264 22.4115 31.5625 22.651C31.7986 22.8906 31.9167 23.1875 31.9167 23.5417V28.125C31.9167 28.4792 31.7978 28.776 31.5599 29.0156C31.3221 29.2552 31.0274 29.375 30.6758 29.375H28.194Z" fill="#5E84A3"/>
</svg>
