<svg width="24" height="23" viewBox="0 0 24 23" fill="none" xmlns="http://www.w3.org/2000/svg">
<path d="M20.2501 13.1642V17.1181C20.2501 18.1359 19.4631 19.0123 18.3781 19.1463C16.2911 19.404 14.1621 19.537 12.0001 19.537C9.83806 19.537 7.70906 19.404 5.62206 19.1463C4.53706 19.0123 3.75006 18.1359 3.75006 17.1181V13.1642M20.2501 13.1642C20.4875 12.9722 20.6775 12.7347 20.807 12.468C20.9364 12.2013 21.0023 11.9116 21.0001 11.6189V8.09949C21.0001 7.0938 20.2321 6.22487 19.1631 6.07602C18.0304 5.91825 16.892 5.79816 15.7501 5.71598M20.2501 13.1642C20.0561 13.3177 19.8301 13.4387 19.5771 13.5177C17.1333 14.2721 14.5748 14.6553 12.0001 14.6528C9.35206 14.6528 6.80506 14.2536 4.42306 13.5177C4.17631 13.4414 3.94778 13.3213 3.75006 13.1642M3.75006 13.1642C3.5126 12.9722 3.32262 12.7347 3.19315 12.468C3.06369 12.2013 2.99782 11.9116 3.00006 11.6189V8.09949C3.00006 7.0938 3.76806 6.22487 4.83706 6.07602C5.96975 5.91825 7.10814 5.79816 8.25006 5.71598M15.7501 5.71598V4.88426C15.7501 4.3291 15.513 3.79667 15.091 3.40411C14.6691 3.01155 14.0968 2.79102 13.5001 2.79102H10.5001C9.90332 2.79102 9.33102 3.01155 8.90907 3.40411C8.48711 3.79667 8.25006 4.3291 8.25006 4.88426V5.71598M15.7501 5.71598C13.2538 5.5365 10.7463 5.5365 8.25006 5.71598M12.0001 11.8618H12.0081V11.8692H12.0001V11.8618Z" stroke="#5E84A3" stroke-width="1.5" stroke-linecap="round" stroke-linejoin="round"/>
</svg>
