<svg width="20" height="20" viewBox="0 0 20 20" fill="none" xmlns="http://www.w3.org/2000/svg">
<g clip-path="url(#clip0_119_2113)">
<path d="M12.0103 1.5502L14.5919 4.13208H12.0103V1.5502Z" stroke="white"/>
<path d="M9.83828 5.21797C9.83828 5.81755 10.3246 6.30391 10.9242 6.30391H15.6418V9.50064C15.6233 9.50047 15.6048 9.50039 15.5863 9.50039C12.2301 9.50039 9.50039 12.2301 9.50039 15.5863C9.50039 17.0758 10.0385 18.4418 10.9293 19.5H0.585938C0.538643 19.5 0.5 19.4614 0.5 19.4141V0.585938C0.5 0.538642 0.538642 0.5 0.585938 0.5H9.83828V5.21797ZM2.92969 13.8594H6.23477C6.83495 13.8594 7.3207 13.3728 7.3207 12.7734C7.3207 12.1741 6.83495 11.6875 6.23477 11.6875H2.92969C2.33011 11.6875 1.84375 12.1739 1.84375 12.7734C1.84375 13.373 2.33011 13.8594 2.92969 13.8594ZM2.92969 11.125H8.98828C9.58786 11.125 10.0742 10.6386 10.0742 10.0391C10.0742 9.43948 9.58786 8.95312 8.98828 8.95312H2.92969C2.33011 8.95312 1.84375 9.43948 1.84375 10.0391C1.84375 10.6386 2.33011 11.125 2.92969 11.125ZM2.92969 8.39062H8.98828C9.58786 8.39062 10.0742 7.90427 10.0742 7.30469C10.0742 6.70511 9.58786 6.21875 8.98828 6.21875H2.92969C2.33011 6.21875 1.84375 6.70511 1.84375 7.30469C1.84375 7.90427 2.33011 8.39062 2.92969 8.39062Z" stroke="white"/>
<path d="M15.0568 15.2447L14.4951 14.6828L14.4951 14.6827C14.0709 14.2586 13.3832 14.2586 12.959 14.6827L12.9587 14.6831C12.5355 15.107 12.5351 15.7944 12.959 16.2184L12.9591 16.2184L14.2885 17.5475C14.2887 17.5476 14.2889 17.5478 14.2891 17.548C14.5006 17.76 14.7795 17.8664 15.0567 17.8664C15.3344 17.8664 15.6131 17.7597 15.8247 17.5481L18.213 15.1598C18.6372 14.7356 18.6372 14.0483 18.213 13.6242C17.7889 13.2 17.1016 13.2 16.6774 13.6242L15.3602 14.9413L15.0568 15.2447ZM11.6724 15.5859C11.6724 13.4281 13.4282 11.6722 15.586 11.6722C17.7439 11.6722 19.5001 13.4281 19.5001 15.5859C19.5001 17.7438 17.7439 19.5 15.586 19.5C13.4283 19.5 11.6724 17.7438 11.6724 15.5859Z" stroke="white"/>
</g>
<defs>
<clipPath id="clip0_119_2113">
<rect width="20" height="20" fill="white"/>
</clipPath>
</defs>
</svg>
