<svg width="20" height="20" viewBox="0 0 20 20" fill="none" xmlns="http://www.w3.org/2000/svg">
<g clip-path="url(#clip0_119_2452)">
<path d="M8.87876 2.99998C9.06057 2.99998 9.18179 2.87877 9.18179 2.69695C9.18179 2.51513 9.06057 2.39392 8.87876 2.39392H2.2727C2.09088 2.39392 1.96967 2.51513 1.96967 2.69695C1.96967 2.87877 2.09088 2.99998 2.2727 2.99998H8.87876ZM8.87876 5.60604H2.45451C2.2727 5.60604 2.15148 5.72725 2.15148 5.90907C2.15148 6.09089 2.2727 6.2121 2.45451 6.2121H8.87876C9.06057 6.2121 9.18179 6.09089 9.18179 5.90907C9.18179 5.72725 9.06057 5.60604 8.87876 5.60604ZM5.87876 7.90907H2.45451C2.2727 7.90907 2.15148 8.03028 2.15148 8.2121C2.15148 8.39392 2.2727 8.51513 2.45451 8.51513H5.84845C6.03027 8.51513 6.15148 8.39392 6.15148 8.2121C6.18179 8.06059 6.03027 7.90907 5.87876 7.90907ZM5.87876 10.2424H2.45451C2.2727 10.2424 2.15148 10.3636 2.15148 10.5454C2.15148 10.7273 2.2727 10.8485 2.45451 10.8485H5.84845C6.2727 10.8485 6.2727 10.2424 5.87876 10.2424ZM5.87876 12.5454H2.45451C2.2727 12.5454 2.15148 12.6666 2.15148 12.8485C2.15148 13.0303 2.2727 13.1515 2.45451 13.1515H5.84845C6.03027 13.1515 6.15148 13.0303 6.15148 12.8485C6.18179 12.6666 6.03027 12.5454 5.87876 12.5454ZM11.1818 14.8485H2.45451C2.2727 14.8485 2.15148 14.9697 2.15148 15.1515C2.15148 15.3333 2.2727 15.4545 2.45451 15.4545H11.1818C11.3636 15.4545 11.4848 15.3333 11.4848 15.1515C11.4848 14.9697 11.3636 14.8485 11.1818 14.8485ZM11.1818 17.1515H2.45451C2.2727 17.1515 2.15148 17.2727 2.15148 17.4545C2.15148 17.6363 2.2727 17.7576 2.45451 17.7576H11.1818C11.3636 17.7576 11.4848 17.6363 11.4848 17.4545C11.4848 17.303 11.3636 17.1515 11.1818 17.1515Z" fill="white"/>
<path d="M19.2424 17.7878C19.7273 17.303 19.7273 16.4848 19.2424 15.9697L16.4545 13.1818C16.3333 13.0606 16.1515 13.0606 16.0303 13.1818L16 13.2121L15.2121 12.4242C15.7273 11.5757 15.9091 10.5454 15.7576 9.60603C15.7879 9.48481 15.7576 9.87875 15.7879 3.66663V3.63633C15.7879 3.51512 15.7273 3.42421 15.606 3.3636C10.9697 0.121178 11.303 0.302996 11.1515 0.302996H0.696951C0.515133 0.302996 0.393921 0.424208 0.393921 0.606027V19.3939C0.393921 19.5757 0.515133 19.6969 0.696951 19.6969H15.4545C15.6363 19.6969 15.7576 19.5757 15.7576 19.3939V16.4242L17.2727 17.9394C17.7879 18.4545 18.5757 18.4545 19.0909 17.9394L19.2424 17.7878ZM15.5454 13.6363L14.9394 14.2424L14.2424 13.5454C14.3636 13.4545 14.4545 13.3636 14.5757 13.2727C14.6666 13.1818 14.7879 13.0606 14.8788 12.9394L15.5454 13.6363ZM9.03028 12.8485C7.60604 11.4242 7.60604 9.15148 9.03028 7.72724C10.4545 6.303 12.7273 6.303 14.1515 7.72724C15.5757 9.15148 15.5454 11.4545 14.1515 12.8485C12.7576 14.2424 10.4545 14.2727 9.03028 12.8485ZM14.5151 3.3333H11.4545V1.18178L14.4242 3.27269L14.5151 3.3333ZM15.1515 19.0909H0.999982V0.909057H10.8485V3.63633C10.8485 3.81815 10.9697 3.93936 11.1515 3.93936H15.1515V8.03027C15 7.75754 14.7879 7.51512 14.5454 7.27269C12.9091 5.63633 10.2424 5.60603 8.57574 7.27269C6.93938 8.90906 6.93938 11.5757 8.57574 13.2424C9.96968 14.6363 12.0909 14.8485 13.7273 13.8788L14.5151 14.6666L14.4848 14.6969C14.3636 14.8181 14.3636 15 14.4848 15.1212L15.1515 15.7878V19.0909ZM18.8182 17.3636L18.697 17.4848C18.4545 17.7272 18 17.7272 17.7273 17.4848L15.1515 14.9091L15.1818 14.8788L16.2121 13.8485L16.2424 13.8181L18.8182 16.3939C19.0606 16.6666 19.0606 17.1212 18.8182 17.3636Z" fill="white"/>
</g>
<defs>
<clipPath id="clip0_119_2452">
<rect width="20" height="20" fill="white"/>
</clipPath>
</defs>
</svg>
