<svg width="16" height="16" viewBox="0 0 16 16" fill="none" xmlns="http://www.w3.org/2000/svg">
<path fill-rule="evenodd" clip-rule="evenodd" d="M14.3034 3.61071C14.3667 3.70685 14.3949 3.8219 14.3833 3.93644C14.3716 4.05098 14.3208 4.15798 14.2394 4.23938L8.11072 10.3674C8.04802 10.43 7.96979 10.4749 7.88405 10.4974L5.33138 11.164C5.247 11.1861 5.15834 11.1856 5.07418 11.1628C4.99002 11.1399 4.91331 11.0954 4.85165 11.0338C4.78999 10.9721 4.74552 10.8954 4.72267 10.8113C4.69982 10.7271 4.69938 10.6384 4.72138 10.554L5.38805 8.00205C5.40751 7.92544 5.44423 7.8543 5.49538 7.79405L11.6467 1.64672C11.7405 1.55308 11.8676 1.50049 12.0001 1.50049C12.1326 1.50049 12.2596 1.55308 12.3534 1.64672L14.2394 3.53205C14.2633 3.55605 14.2848 3.58241 14.3034 3.61071ZM13.1787 3.88538L12.0001 2.70738L6.32138 8.38605L5.90472 9.98138L7.50005 9.56472L13.1787 3.88538Z" fill="#B4A4A4"/>
<path d="M13.094 11.44C13.2762 9.8826 13.3344 8.31322 13.268 6.74663C13.2665 6.70972 13.2727 6.67291 13.2861 6.6385C13.2995 6.60409 13.3199 6.57282 13.346 6.54663L14.002 5.89063C14.0199 5.8726 14.0426 5.86014 14.0675 5.85473C14.0923 5.84932 14.1182 5.8512 14.142 5.86014C14.1658 5.86908 14.1865 5.88471 14.2016 5.90514C14.2168 5.92556 14.2257 5.94993 14.2273 5.9753C14.3508 7.83612 14.3039 9.70434 14.0873 11.5566C13.93 12.9046 12.8473 13.9613 11.5053 14.1113C9.17552 14.3693 6.82439 14.3693 4.49462 14.1113C3.15329 13.9613 2.06996 12.9046 1.91262 11.5566C1.63622 9.19357 1.63622 6.80635 1.91262 4.4433C2.06996 3.0953 3.15262 2.03863 4.49462 1.88863C6.26287 1.69255 8.04444 1.64505 9.82062 1.74663C9.84604 1.74846 9.87041 1.75753 9.89083 1.77277C9.91125 1.78802 9.92688 1.80879 9.93586 1.83265C9.94484 1.8565 9.94679 1.88242 9.94149 1.90735C9.93619 1.93228 9.92386 1.95516 9.90596 1.9733L9.24396 2.63463C9.21803 2.66046 9.18708 2.68071 9.15303 2.69413C9.11898 2.70754 9.08254 2.71384 9.04596 2.71263C7.56379 2.66225 6.07993 2.71906 4.60596 2.88263C4.17525 2.9303 3.77319 3.12178 3.46473 3.42613C3.15626 3.73048 2.9594 4.12994 2.90596 4.55997C2.63865 6.84551 2.63865 9.15442 2.90596 11.44C2.9594 11.87 3.15626 12.2694 3.46473 12.5738C3.77319 12.8781 4.17525 13.0696 4.60596 13.1173C6.84262 13.3673 9.15729 13.3673 11.3946 13.1173C11.8253 13.0696 12.2274 12.8781 12.5359 12.5738C12.8443 12.2694 13.0405 11.87 13.094 11.44Z" fill="#B4A4A4"/>
</svg>
