<svg width="32" height="32" viewBox="0 0 32 32" fill="none" xmlns="http://www.w3.org/2000/svg">
<g clip-path="url(#clip0_119_2465)">
<path d="M9.77597 27.0639C9.69523 27.0215 9.60442 27.002 9.51339 27.0075C9.42235 27.013 9.33457 27.0433 9.25953 27.0952L4.60253 30.3114C4.53594 30.3574 4.4815 30.4189 4.4439 30.4906C4.4063 30.5622 4.38666 30.6419 4.38666 30.7229V31C4.38666 31.1326 4.43934 31.2598 4.53311 31.3536C4.62687 31.4473 4.75405 31.5 4.88666 31.5H9.54366C9.67627 31.5 9.80344 31.4473 9.89721 31.3536C9.99098 31.2598 10.0437 31.1326 10.0437 31V27.5066C10.0437 27.4154 10.0187 27.326 9.97153 27.2479C9.92435 27.1699 9.85673 27.1062 9.77597 27.0639ZM9.04366 30.5H6.08928L9.04366 28.4596V30.5ZM23.6138 17.5071C23.5331 17.4647 23.4423 17.4452 23.3513 17.4507C23.2602 17.4562 23.1724 17.4865 23.0974 17.5384L21.0335 18.9638C20.1835 18.248 19.1948 17.7155 18.1294 17.3996C19.3518 16.6301 20.1664 15.2694 20.1664 13.7213C20.1664 11.3259 18.2176 9.37706 15.8222 9.37706C13.4267 9.37706 11.4779 11.3259 11.4779 13.7213C11.4779 15.2697 12.2928 16.6307 13.5157 17.4001C12.3551 17.7443 11.2866 18.3446 10.389 19.1569C8.90866 20.4957 7.97691 22.3213 7.76547 24.2976C7.75798 24.3673 7.76526 24.4379 7.78683 24.5046C7.8084 24.5714 7.84378 24.6328 7.89067 24.685C7.93756 24.7372 7.99491 24.7789 8.05899 24.8075C8.12307 24.836 8.19244 24.8508 8.2626 24.8507H12.5095L11.5214 25.5331C11.4548 25.5791 11.4004 25.6406 11.3628 25.7122C11.3252 25.7839 11.3055 25.8636 11.3055 25.9446V31C11.3055 31.1326 11.3582 31.2598 11.452 31.3536C11.5457 31.4473 11.6729 31.5 11.8055 31.5H16.4625C16.5951 31.5 16.7223 31.4473 16.8161 31.3536C16.9099 31.2598 16.9625 31.1326 16.9625 31V24.8506H18.2245V31C18.2245 31.1326 18.2772 31.2598 18.3709 31.3536C18.4647 31.4473 18.5919 31.5 18.7245 31.5H23.3815C23.5141 31.5 23.6413 31.4473 23.735 31.3536C23.8288 31.2598 23.8815 31.1326 23.8815 31V17.9498C23.8815 17.8586 23.8566 17.7692 23.8094 17.6911C23.7622 17.6131 23.6946 17.5494 23.6138 17.5071ZM12.4779 13.7212C12.4779 11.8772 13.9782 10.377 15.8222 10.377C17.6662 10.377 19.1664 11.8772 19.1664 13.7212C19.1664 15.565 17.6666 17.0651 15.823 17.0655H15.8213C13.9777 17.0651 12.4779 15.565 12.4779 13.7212ZM15.9626 30.5H12.3056V26.2068L15.9626 23.6812V30.5ZM16.9626 23.8506V22.7283C16.9626 22.637 16.9377 22.5476 16.8905 22.4695C16.8433 22.3915 16.7757 22.3278 16.6949 22.2854C16.6142 22.243 16.5234 22.2236 16.4323 22.2291C16.3413 22.2346 16.2535 22.265 16.1785 22.3168L13.9575 23.8507H8.84072C9.46191 20.5161 12.3703 18.0659 15.8212 18.0655H15.8229C17.411 18.0657 18.9342 18.5912 20.1757 19.5562L18.4404 20.7547C18.3738 20.8007 18.3194 20.8621 18.2818 20.9338C18.2442 21.0055 18.2245 21.0852 18.2245 21.1661V23.8507H16.9626V23.8506ZM22.8815 30.5H19.2245V21.4284L22.8815 18.9028V30.5ZM30.5329 12.7286C30.4521 12.6862 30.3613 12.6668 30.2703 12.6723C30.1792 12.6778 30.0915 12.7081 30.0164 12.7599L25.3594 15.9762C25.2928 16.0222 25.2383 16.0836 25.2007 16.1553C25.1631 16.227 25.1435 16.3067 25.1435 16.3876V31C25.1435 31.1326 25.1962 31.2598 25.2899 31.3536C25.3837 31.4473 25.5109 31.5 25.6435 31.5H30.3005C30.4331 31.5 30.5603 31.4473 30.6541 31.3536C30.7479 31.2598 30.8005 31.1326 30.8005 31V13.1714C30.8005 13.0802 30.7756 12.9907 30.7284 12.9127C30.6812 12.8346 30.6136 12.771 30.5329 12.7286ZM29.8005 30.5H26.1435V16.6499L29.8005 14.1243V30.5ZM4.6951 13.7466V13.9744C4.6951 14.4111 4.94978 14.7884 5.31785 14.9685V15.189C5.31785 15.7996 5.81453 16.2962 6.4251 16.2962H7.21322C7.82372 16.2962 8.32041 15.7996 8.32041 15.189V14.9685C8.68847 14.7884 8.94322 14.4111 8.94322 13.9744V13.7465C9.30297 13.5634 9.55047 13.1904 9.55047 12.7599V12.1689C9.64104 10.6608 10.0149 10.0216 10.3766 9.4035C10.7107 8.83256 11.0561 8.24225 11.0561 7.14206C11.0561 4.80581 9.15547 2.90512 6.81922 2.90512C4.48297 2.90512 2.58228 4.80581 2.58228 7.14206C2.58228 8.24225 2.92772 8.83256 3.26178 9.4035C3.62347 10.0216 3.99735 10.6608 4.08791 12.1689V12.7599C4.08785 13.1905 4.33535 13.5635 4.6951 13.7466ZM5.67385 7.53794H5.30541C5.10228 7.53794 4.93697 7.37269 4.93697 7.16956C4.93697 6.96644 5.10228 6.80119 5.30541 6.80119C5.50853 6.80119 5.67385 6.96644 5.67385 7.16956V7.53794ZM6.96441 11.6526H6.67385V8.53794H6.96441V11.6526ZM8.55041 12.6526V12.7599C8.55041 12.8181 8.50128 12.8671 8.44316 12.8671H5.19503C5.13691 12.8671 5.08785 12.818 5.08785 12.7599V12.6526H8.55041ZM7.83591 14.0817H5.80228C5.77396 14.0813 5.74691 14.0699 5.72688 14.0498C5.70685 14.0298 5.69542 14.0028 5.69503 13.9744V13.8672H7.94316V13.9744C7.94277 14.0028 7.93135 14.0298 7.91132 14.0498C7.89129 14.0699 7.86423 14.0813 7.83591 14.0817ZM7.21322 15.2963H6.4251C6.39677 15.2959 6.36972 15.2844 6.34969 15.2644C6.32966 15.2444 6.31823 15.2173 6.31785 15.189V15.0817H7.32041V15.189C7.32004 15.2173 7.30863 15.2444 7.28861 15.2644C7.26859 15.2844 7.24154 15.2959 7.21322 15.2963ZM6.81916 3.90519C8.60403 3.90519 10.056 5.35725 10.056 7.14213C10.056 7.97125 9.82841 8.36019 9.51341 8.89856C9.16672 9.49106 8.74316 10.215 8.58985 11.6527H7.96441V8.538H8.33285C9.08735 8.538 9.70122 7.92412 9.70122 7.16962C9.70122 6.41512 9.08741 5.80125 8.33285 5.80125C7.57828 5.80125 6.96441 6.41512 6.96441 7.16962V7.538H6.67385V7.16962C6.67385 6.41512 6.05997 5.80125 5.30541 5.80125C4.55085 5.80125 3.93697 6.41512 3.93697 7.16962C3.93697 7.92412 4.55085 8.538 5.30541 8.538H5.67385V11.6527H5.04841C4.8951 10.215 4.47153 9.49106 4.12485 8.89856C3.80985 8.36025 3.58222 7.97125 3.58222 7.14213C3.58222 5.35725 5.03428 3.90519 6.81916 3.90519ZM7.96441 7.53794V7.16956C7.96441 6.96644 8.12972 6.80119 8.33285 6.80119C8.53597 6.80119 8.70122 6.96644 8.70122 7.16956C8.70122 7.37269 8.53597 7.53794 8.33285 7.53794H7.96441ZM6.3191 2.142V1.26175C6.3191 1.12914 6.37177 1.00196 6.46554 0.908197C6.55931 0.814428 6.68649 0.76175 6.8191 0.76175C6.9517 0.76175 7.07888 0.814428 7.17265 0.908197C7.26642 1.00196 7.3191 1.12914 7.3191 1.26175V2.142C7.3191 2.27461 7.26642 2.40179 7.17265 2.49555C7.07888 2.58932 6.9517 2.642 6.8191 2.642C6.68649 2.642 6.55931 2.58932 6.46554 2.49555C6.37177 2.40179 6.3191 2.27461 6.3191 2.142ZM9.2046 2.64719L9.64472 1.88488C9.67754 1.828 9.72124 1.77815 9.77334 1.73817C9.82543 1.69819 9.88488 1.66887 9.94831 1.65188C10.0117 1.63488 10.0779 1.63055 10.143 1.63913C10.2081 1.64771 10.2709 1.66903 10.3277 1.70187C10.4426 1.76818 10.5264 1.87739 10.5607 2.00548C10.595 2.13356 10.577 2.27004 10.5107 2.38488L10.0706 3.14719C10.0378 3.20407 9.99408 3.25392 9.94199 3.29391C9.8899 3.33389 9.83045 3.36322 9.76702 3.38021C9.70359 3.39721 9.63743 3.40154 9.57233 3.39295C9.50723 3.38437 9.44445 3.36304 9.3876 3.33019C9.33072 3.29737 9.28087 3.25366 9.2409 3.20157C9.20092 3.14948 9.17159 3.09003 9.1546 3.0266C9.1376 2.96317 9.13327 2.89702 9.14185 2.83192C9.15043 2.76682 9.17175 2.70405 9.2046 2.64719ZM11.2679 5.21044C11.2016 5.0956 11.1836 4.95912 11.218 4.83104C11.2523 4.70295 11.3361 4.59374 11.4509 4.52744L12.2132 4.08731C12.3279 4.02205 12.4639 4.00484 12.5913 4.03944C12.7187 4.07403 12.8273 4.15762 12.8933 4.27197C12.9593 4.38631 12.9774 4.52212 12.9437 4.64977C12.9099 4.77742 12.8271 4.88654 12.7132 4.95331L11.9509 5.39344C11.8941 5.42633 11.8313 5.44769 11.7662 5.4563C11.7011 5.46491 11.6349 5.46059 11.5715 5.44359C11.508 5.42659 11.4486 5.39725 11.3965 5.35724C11.3444 5.31723 11.3007 5.26735 11.2679 5.21044ZM3.1276 2.38488C3.06234 2.2701 3.04513 2.13416 3.07972 2.00674C3.11432 1.87932 3.19791 1.77076 3.31225 1.70474C3.42659 1.63872 3.56241 1.62061 3.69006 1.65436C3.8177 1.6881 3.92682 1.77097 3.9936 1.88488L4.43372 2.64719C4.4776 2.72316 4.50071 2.80934 4.50075 2.89708C4.50078 2.98481 4.47772 3.07101 4.43389 3.14701C4.39007 3.22302 4.32702 3.28615 4.25107 3.33008C4.17512 3.374 4.08896 3.39717 4.00122 3.39725C3.91336 3.39735 3.82703 3.37428 3.75092 3.33038C3.67481 3.28648 3.61162 3.22329 3.56772 3.14719L3.1276 2.38488ZM2.37035 5.21044C2.33753 5.26732 2.29383 5.31717 2.24174 5.35716C2.18965 5.39714 2.13019 5.42647 2.06677 5.44346C2.00334 5.46046 1.93718 5.46479 1.87208 5.4562C1.80698 5.44762 1.7442 5.42629 1.68735 5.39344L0.925096 4.95331C0.81026 4.88701 0.726466 4.7778 0.692147 4.64971C0.657828 4.52163 0.675795 4.38515 0.742096 4.27031C0.774916 4.21344 0.818619 4.16359 0.87071 4.12361C0.9228 4.08363 0.982257 4.05431 1.04568 4.03731C1.10911 4.02032 1.17526 4.01599 1.24036 4.02457C1.30546 4.03315 1.36824 4.05447 1.4251 4.08731L2.18735 4.52744C2.24422 4.56026 2.29407 4.60396 2.33405 4.65605C2.37403 4.70814 2.40335 4.7676 2.42035 4.83102C2.43734 4.89445 2.44167 4.9606 2.43309 5.02571C2.42451 5.09081 2.40319 5.15358 2.37035 5.21044ZM31.0045 5.07631L30.3717 4.83281C30.2724 4.49686 30.1379 4.17234 29.9704 3.86469L30.2458 3.24463C30.2868 3.15227 30.2989 3.04965 30.2804 2.9503C30.262 2.85094 30.2138 2.75951 30.1424 2.68806L29.1367 1.6825C29.0653 1.61106 28.9739 1.56295 28.8745 1.54449C28.7752 1.52604 28.6726 1.53811 28.5803 1.57913L27.9599 1.85462C27.6524 1.68714 27.328 1.55264 26.9922 1.45337L26.7485 0.820375C26.7122 0.726074 26.6482 0.644986 26.5649 0.587795C26.4816 0.530605 26.3829 0.499995 26.2819 0.5H24.8598C24.7587 0.499999 24.6601 0.530611 24.5768 0.587802C24.4935 0.644993 24.4295 0.726079 24.3932 0.820375L24.1495 1.45337C23.8137 1.55269 23.4893 1.68718 23.1818 1.85462L22.5614 1.57906C22.4691 1.53805 22.3665 1.52599 22.2671 1.54445C22.1678 1.56292 22.0764 1.61105 22.0049 1.6825L20.9993 2.68812C20.9279 2.75957 20.8798 2.85098 20.8613 2.95031C20.8429 3.04964 20.855 3.15223 20.896 3.24456L21.1714 3.86488C21.0039 4.17246 20.8694 4.49689 20.7702 4.83275L20.1372 5.07638C20.0429 5.11267 19.9618 5.17669 19.9046 5.25999C19.8475 5.34329 19.8168 5.44196 19.8168 5.543V6.96506C19.8168 7.0661 19.8475 7.16478 19.9046 7.24807C19.9618 7.33137 20.0429 7.39539 20.1372 7.43169L20.77 7.67525C20.8693 8.01119 21.0039 8.3357 21.1713 8.64338L20.896 9.26344C20.855 9.35578 20.8429 9.45838 20.8613 9.55772C20.8798 9.65707 20.9279 9.74849 20.9993 9.81994L22.0049 10.8255C22.0764 10.8969 22.1678 10.945 22.2671 10.9635C22.3665 10.982 22.4691 10.9699 22.5614 10.9289L23.1818 10.6534C23.4894 10.8208 23.8137 10.9553 24.1495 11.0546L24.3932 11.6876C24.4295 11.7819 24.4935 11.8629 24.5768 11.9201C24.6601 11.9773 24.7587 12.0079 24.8598 12.0079H26.2819C26.383 12.0079 26.4816 11.9773 26.5649 11.9201C26.6482 11.8629 26.7122 11.7819 26.7485 11.6876L26.992 11.0548C27.328 10.9555 27.6525 10.821 27.9602 10.6534L28.5802 10.9288C28.6726 10.9698 28.7752 10.9819 28.8745 10.9635C28.9739 10.945 29.0653 10.8969 29.1367 10.8254L30.1424 9.81981C30.2138 9.74836 30.2619 9.65694 30.2804 9.5576C30.2988 9.45826 30.2867 9.35565 30.2457 9.26331L29.9702 8.64294C30.1377 8.33542 30.2722 8.01105 30.3714 7.67525L31.0045 7.43162C31.0988 7.39533 31.1799 7.33131 31.237 7.24801C31.2942 7.16471 31.3249 7.06604 31.3249 6.965V5.543C31.3249 5.44195 31.2943 5.34326 31.2371 5.25994C31.1799 5.17663 31.0988 5.11261 31.0045 5.07631ZM30.3249 6.62175L29.7746 6.83356C29.6988 6.86272 29.6313 6.90992 29.5778 6.97105C29.5244 7.03219 29.4866 7.10543 29.4678 7.18444C29.3697 7.59656 29.2065 7.99037 28.9842 8.351C28.9416 8.42017 28.9165 8.49867 28.9111 8.57971C28.9056 8.66075 28.92 8.74189 28.953 8.81612L29.1925 9.35556L28.6725 9.87569L28.1333 9.63619C28.0591 9.6032 27.9779 9.58881 27.8969 9.59426C27.8158 9.5997 27.7373 9.62482 27.6682 9.66744C27.3075 9.88982 26.9135 10.0531 26.5013 10.1512C26.4223 10.17 26.349 10.2078 26.2879 10.2612C26.2268 10.3147 26.1796 10.3822 26.1504 10.458L25.9387 11.0081H25.2031L24.9913 10.4578C24.9621 10.382 24.9149 10.3145 24.8538 10.261C24.7927 10.2076 24.7194 10.1698 24.6404 10.151C24.2283 10.0529 23.8344 9.88966 23.4738 9.66731C23.4046 9.62475 23.3261 9.59966 23.2451 9.59423C23.1641 9.58879 23.083 9.60317 23.0087 9.63612L22.4692 9.87569L21.9492 9.35563L22.1887 8.81644C22.2216 8.7422 22.236 8.66105 22.2306 8.58001C22.2251 8.49897 22.2 8.42047 22.1574 8.35131C21.9351 7.9906 21.7718 7.59668 21.6737 7.18444C21.6549 7.10543 21.6172 7.03219 21.5638 6.97105C21.5103 6.90992 21.4428 6.86272 21.367 6.83356L20.8168 6.62181V5.88631L21.3671 5.6745C21.4429 5.64532 21.5104 5.59811 21.5639 5.53697C21.6174 5.47582 21.6551 5.40258 21.6739 5.32356C21.7719 4.91141 21.9352 4.51757 22.1575 4.15694C22.2001 4.08779 22.2252 4.0093 22.2306 3.92827C22.2361 3.84724 22.2217 3.7661 22.1887 3.69187L21.9492 3.1525L22.4692 2.63244L23.0087 2.872C23.083 2.90495 23.1641 2.91933 23.2451 2.91388C23.3262 2.90844 23.4047 2.88334 23.4738 2.84075C23.8345 2.61841 24.2283 2.45512 24.6404 2.35706C24.7194 2.33825 24.7926 2.30049 24.8538 2.24703C24.9149 2.19357 24.9621 2.12603 24.9912 2.05025L25.2031 1.5H25.9385L26.1504 2.05031C26.1796 2.12609 26.2268 2.19362 26.2879 2.24708C26.349 2.30054 26.4222 2.33831 26.5012 2.35713C26.9134 2.45517 27.3073 2.61846 27.6679 2.84081C27.7371 2.88339 27.8156 2.90848 27.8966 2.91391C27.9776 2.91935 28.0588 2.90496 28.133 2.872L28.6724 2.63244L29.1925 3.1525L28.953 3.69163C28.92 3.76587 28.9056 3.84703 28.9111 3.92808C28.9165 4.00913 28.9416 4.08764 28.9842 4.15681C29.2066 4.51753 29.3699 4.91145 29.468 5.32369C29.4868 5.40271 29.5245 5.47596 29.578 5.5371C29.6314 5.59825 29.699 5.64545 29.7748 5.67462L30.3249 5.88631V6.62175H30.3249ZM25.5709 3.27394C23.9276 3.27394 22.5907 4.61081 22.5907 6.25406C22.5907 7.89731 23.9276 9.23413 25.5709 9.23413C27.2141 9.23413 28.551 7.89725 28.551 6.25406C28.551 4.61081 27.2141 3.27394 25.5709 3.27394ZM25.5709 8.23413C24.479 8.23413 23.5907 7.34588 23.5907 6.25406C23.5907 5.16219 24.479 4.27394 25.5709 4.27394C26.6627 4.27394 27.551 5.16219 27.551 6.25406C27.551 7.34588 26.6627 8.23413 25.5709 8.23413Z" fill="#057EE7"/>
</g>
<defs>
<clipPath id="clip0_119_2465">
<rect width="32" height="32" fill="white"/>
</clipPath>
</defs>
</svg>
