<svg width="32" height="32" viewBox="0 0 32 32" fill="none" xmlns="http://www.w3.org/2000/svg">
<g clip-path="url(#clip0_119_2483)">
<path d="M31.5 18.0276V13.9724C31.5 13.8535 31.4576 13.7385 31.3805 13.648C31.3033 13.5576 31.1965 13.4975 31.0791 13.4787L28.5985 13.0817C28.2774 11.6887 27.7311 10.3711 26.9711 9.15644L28.4453 7.12031C28.515 7.02401 28.5482 6.906 28.5388 6.78747C28.5293 6.66894 28.478 6.55765 28.3939 6.47356L25.5265 3.60619C25.4424 3.52212 25.3311 3.47077 25.2126 3.46134C25.094 3.45191 24.976 3.48503 24.8797 3.55475L22.8436 5.02894C21.6285 4.26881 20.3111 3.72262 18.9183 3.4015L18.5212 0.921C18.5025 0.803573 18.4424 0.696688 18.3519 0.61953C18.2614 0.542372 18.1464 0.499993 18.0275 0.5H13.9724C13.8535 0.500005 13.7385 0.542382 13.648 0.619526C13.5575 0.696671 13.4975 0.803533 13.4787 0.920937L13.0816 3.40144C11.6887 3.72256 10.3711 4.26875 9.15631 5.02881L7.12025 3.55469C7.02392 3.48497 6.90591 3.45185 6.78737 3.46128C6.66883 3.4707 6.55753 3.52206 6.47344 3.60612L3.606 6.4735C3.52192 6.55759 3.47056 6.6689 3.46115 6.78744C3.45173 6.90598 3.48487 7.024 3.55462 7.12031L5.02881 9.15637C4.26844 10.3719 3.72225 11.6892 3.40137 13.0816L0.920875 13.4787C0.803471 13.4975 0.696615 13.5575 0.619482 13.648C0.542349 13.7385 0.499988 13.8535 0.5 13.9724V18.0276C0.499993 18.1465 0.542365 18.2615 0.619511 18.352C0.696658 18.4424 0.803527 18.5025 0.920937 18.5212L3.40144 18.9183C3.72256 20.3112 4.26881 21.6287 5.02887 22.8436L3.55469 24.8797C3.48495 24.976 3.45182 25.094 3.46124 25.2125C3.47065 25.3311 3.522 25.4423 3.60606 25.5264L6.4735 28.3938C6.5576 28.4779 6.6689 28.5292 6.78743 28.5387C6.90597 28.5481 7.02399 28.515 7.12031 28.4452L9.15637 26.9711C10.3719 27.7314 11.6894 28.2777 13.0817 28.5985L13.4787 31.079C13.4976 31.1964 13.5576 31.3033 13.6481 31.3804C13.7385 31.4576 13.8535 31.4999 13.9724 31.4999H18.0276C18.1465 31.4999 18.2615 31.4576 18.3519 31.3804C18.4424 31.3033 18.5024 31.1964 18.5212 31.079L18.8775 28.8537C20.1798 30.4664 22.1721 31.4999 24.4016 31.4999C28.3157 31.5 31.5 28.3157 31.5 24.4016C31.5 22.1721 30.4664 20.1797 28.8537 18.8774L31.079 18.5212C31.1964 18.5025 31.3033 18.4425 31.3805 18.352C31.4577 18.2615 31.5 18.1465 31.5 18.0276ZM24.9314 17.3231C24.7551 17.3099 24.5784 17.3033 24.4016 17.3033C23.3282 17.3033 22.3101 17.5432 21.3971 17.9716V17.1809C21.3971 15.9995 20.5024 15.1001 18.9424 14.7131C18.4067 14.5802 17.8628 14.4825 17.3142 14.4207C18.1423 13.8395 18.7037 12.7279 18.7037 11.4541C18.7037 9.73119 17.6677 8.66087 16.0001 8.66087C14.3323 8.66087 13.2963 9.73119 13.2963 11.4541C13.2963 12.7251 13.8554 13.8346 14.6805 14.4168C14.1319 14.4776 13.5882 14.5769 13.0535 14.7141C11.4732 15.1203 10.6029 15.9964 10.6029 17.1809V21.6295C10.6029 21.7621 10.6556 21.8893 10.7494 21.9831C10.8432 22.0768 10.9703 22.1295 11.1029 22.1295H17.6762C17.4345 22.8432 17.3033 23.6074 17.3033 24.4016C17.3033 24.5798 17.3101 24.7565 17.3231 24.9314C16.885 24.9958 16.4428 25.0282 16 25.0282C11.0218 25.0282 6.97175 20.9782 6.97175 15.9999C6.97175 11.0217 11.0218 6.97169 16 6.97169C20.9782 6.97169 25.0282 11.0218 25.0282 16C25.0282 16.4424 24.9957 16.8857 24.9314 17.3231ZM18.6717 17.7036C18.5391 17.7036 18.412 17.7562 18.3182 17.85C18.2244 17.9438 18.1717 18.071 18.1717 18.2036V21.0022C18.1487 21.0443 18.1262 21.0868 18.1039 21.1294H13.8281V18.2036C13.8281 18.071 13.7754 17.9438 13.6817 17.85C13.5879 17.7562 13.4607 17.7036 13.3281 17.7036C13.1955 17.7036 13.0683 17.7562 12.9746 17.85C12.8808 17.9438 12.8281 18.071 12.8281 18.2036V21.1294H11.6029V17.1809C11.6029 16.3036 12.5271 15.8819 13.3024 15.6826C15.0602 15.2305 16.8767 15.2309 18.7016 15.6836C19.3348 15.8407 20.397 16.244 20.397 17.1809V18.5439C19.9496 18.8508 19.5385 19.2076 19.1717 19.6074V18.2035C19.1717 18.0709 19.119 17.9437 19.0253 17.85C18.9315 17.7562 18.8043 17.7036 18.6717 17.7036ZM16 13.8503C15.0606 13.8503 14.2962 12.7753 14.2962 11.454C14.2962 9.89375 15.3637 9.66081 16 9.66081C16.6363 9.66081 17.7037 9.89381 17.7037 11.454C17.7037 12.7754 16.9394 13.8503 16 13.8503ZM30.5 24.4016C30.5 27.7643 27.7643 30.5 24.4016 30.5C21.039 30.5 18.3033 27.7643 18.3033 24.4016C18.3033 21.0389 21.039 18.3033 24.4016 18.3033C27.7643 18.3033 30.5 21.039 30.5 24.4016ZM30.5 17.6012L28.1031 17.9849C27.9804 18.0047 27.8694 18.0695 27.792 18.1667C27.2047 17.846 26.5746 17.6106 25.9209 17.4676C25.9923 16.9816 26.0281 16.4911 26.0282 16C26.0282 10.4704 21.5296 5.97175 15.9999 5.97175C10.4703 5.97175 5.97169 10.4704 5.97169 16C5.97169 21.5296 10.4704 26.0283 15.9999 26.0283C16.4907 26.0283 16.9823 25.9922 17.4675 25.9209C17.6106 26.5747 17.846 27.2047 18.1667 27.7921C18.0695 27.8696 18.0047 27.9805 17.9849 28.1032L17.6012 30.5H14.3987L14.0151 28.1031C13.999 28.0026 13.9526 27.9094 13.8821 27.8359C13.8116 27.7625 13.7203 27.7123 13.6206 27.6921C12.1158 27.3876 10.7012 26.8012 9.41619 25.9491C9.33135 25.8928 9.23136 25.8638 9.1296 25.8659C9.02784 25.868 8.92914 25.9011 8.84669 25.9608L6.87919 27.3854L4.61475 25.1209L6.03925 23.1533C6.09896 23.0709 6.13207 22.9721 6.13417 22.8704C6.13627 22.7686 6.10726 22.6686 6.051 22.5837C5.19925 21.2996 4.61275 19.8851 4.30794 18.3794C4.28774 18.2797 4.23756 18.1884 4.16412 18.1179C4.09067 18.0474 3.99746 18.001 3.89694 17.9849L1.5 17.6012V14.3987L3.89687 14.0151C3.9974 13.999 4.09063 13.9526 4.16407 13.8821C4.23752 13.8116 4.28769 13.7203 4.30787 13.6206C4.61244 12.1157 5.19887 10.7012 6.05094 9.41625C6.10722 9.33141 6.13625 9.23142 6.13415 9.12963C6.13205 9.02785 6.09892 8.92913 6.03919 8.84669L4.61469 6.87925L6.87912 4.61475L8.84662 6.03925C8.92908 6.09895 9.0278 6.13205 9.12958 6.13414C9.23136 6.13623 9.33135 6.1072 9.41619 6.05094C10.7003 5.19925 12.1149 4.61275 13.6206 4.30787C13.7203 4.28766 13.8116 4.23748 13.8821 4.16404C13.9525 4.09059 13.9989 3.99739 14.0151 3.89687L14.3987 1.5H17.6012L17.9849 3.89687C18.001 3.9974 18.0474 4.09061 18.1179 4.16405C18.1884 4.2375 18.2796 4.28768 18.3794 4.30787C19.8847 4.61269 21.2992 5.19919 22.5837 6.05094C22.6686 6.10718 22.7686 6.13619 22.8703 6.13409C22.9721 6.13199 23.0708 6.09888 23.1532 6.03919L25.1207 4.61469L27.3852 6.87919L25.9607 8.84669C25.901 8.92914 25.8679 9.02785 25.8658 9.12963C25.8637 9.23141 25.8927 9.33141 25.949 9.41625C26.8007 10.7002 27.3871 12.1148 27.6921 13.6206C27.7123 13.7203 27.7625 13.8116 27.8359 13.8821C27.9093 13.9525 28.0025 13.9989 28.1031 14.0151L30.5 14.3987V17.6012ZM26.4146 21.6492L23.4269 24.6803L22.3888 23.6422C22.111 23.3644 21.7416 23.2113 21.3487 23.2113C20.9557 23.2113 20.5864 23.3643 20.3086 23.6421C20.1715 23.7784 20.0629 23.9405 19.9889 24.119C19.9149 24.2976 19.8771 24.489 19.8776 24.6822C19.8771 24.8755 19.9149 25.0669 19.9889 25.2455C20.0628 25.424 20.1715 25.5861 20.3085 25.7224L22.3909 27.8047C22.6777 28.0915 23.0543 28.2349 23.431 28.2348C23.8077 28.2348 24.1844 28.0914 24.4712 27.8047C25.5332 26.7426 27.7013 24.5232 28.4984 23.7182C28.6348 23.5819 28.7427 23.4198 28.8161 23.2413C28.8894 23.0629 28.9266 22.8718 28.9256 22.6789C28.9255 22.486 28.8873 22.295 28.813 22.117C28.7386 21.939 28.6298 21.7775 28.4926 21.6419C27.9186 21.071 26.9871 21.0736 26.4146 21.6492ZM27.7885 23.014C26.9882 23.8222 24.8219 26.0398 23.764 27.0977C23.5804 27.2813 23.2816 27.2813 23.098 27.0977L21.0157 25.0153H21.0156C20.9718 24.9717 20.937 24.9198 20.9133 24.8626C20.8896 24.8055 20.8775 24.7442 20.8777 24.6823C20.8777 24.5566 20.9267 24.4382 21.0157 24.3493C21.0593 24.3054 21.1112 24.2707 21.1684 24.247C21.2255 24.2233 21.2868 24.2112 21.3487 24.2114C21.4745 24.2114 21.5927 24.2604 21.6817 24.3493L23.076 25.7436C23.1698 25.8373 23.2969 25.89 23.4295 25.89H23.4313C23.4973 25.8898 23.5625 25.8765 23.6233 25.8509C23.6841 25.8253 23.7393 25.788 23.7856 25.741L27.1251 22.3529C27.3072 22.1697 27.6043 22.169 27.7875 22.3511C27.8312 22.3943 27.8659 22.4458 27.8896 22.5026C27.9133 22.5593 27.9256 22.6202 27.9256 22.6817C27.9258 22.8067 27.8775 22.9245 27.7885 23.014Z" fill="black"/>
</g>
<defs>
<clipPath id="clip0_119_2483">
<rect width="32" height="32" fill="white"/>
</clipPath>
</defs>
</svg>
