<svg width="24" height="23" viewBox="0 0 24 23" fill="none" xmlns="http://www.w3.org/2000/svg">
<g clip-path="url(#clip0_119_1712)">
<path d="M1.51874 4.84614H1.62156C1.7796 5.43986 2.14003 5.9663 2.64591 6.3423C3.15178 6.7183 3.77426 6.92242 4.415 6.92242C5.05575 6.92242 5.67822 6.7183 6.1841 6.3423C6.68997 5.9663 7.0504 5.43986 7.20845 4.84614H21.7926C21.9846 4.84614 22.1688 4.77321 22.3046 4.64337C22.4403 4.51354 22.5166 4.33745 22.5166 4.15384C22.5166 3.97023 22.4403 3.79413 22.3046 3.6643C22.1688 3.53447 21.9846 3.46153 21.7926 3.46153H7.20845C7.0504 2.86782 6.68997 2.34138 6.1841 1.96538C5.67822 1.58938 5.05575 1.38525 4.415 1.38525C3.77426 1.38525 3.15178 1.58938 2.64591 1.96538C2.14003 2.34138 1.7796 2.86782 1.62156 3.46153H1.51874C1.32671 3.46153 1.14254 3.53447 1.00675 3.6643C0.870963 3.79413 0.794678 3.97023 0.794678 4.15384C0.794678 4.33745 0.870963 4.51354 1.00675 4.64337C1.14254 4.77321 1.32671 4.84614 1.51874 4.84614ZM4.415 2.76922C4.70142 2.76922 4.9814 2.85043 5.21954 3.00257C5.45768 3.15472 5.64329 3.37096 5.7529 3.62397C5.86251 3.87697 5.89118 4.15537 5.83531 4.42396C5.77943 4.69255 5.64151 4.93927 5.43898 5.13291C5.23646 5.32655 4.97843 5.45842 4.69752 5.51185C4.41661 5.56527 4.12544 5.53785 3.86083 5.43305C3.59622 5.32826 3.37005 5.15079 3.21093 4.92309C3.0518 4.69539 2.96687 4.42769 2.96687 4.15384C2.96687 3.78661 3.11944 3.43443 3.39102 3.17477C3.6626 2.9151 4.03093 2.76922 4.415 2.76922ZM21.7926 10.3846H21.6897C21.5317 9.79089 21.1713 9.26445 20.6654 8.88845C20.1595 8.51245 19.537 8.30833 18.8963 8.30833C18.2556 8.30833 17.6331 8.51245 17.1272 8.88845C16.6213 9.26445 16.2609 9.79089 16.1029 10.3846H1.51874C1.32671 10.3846 1.14254 10.4575 1.00675 10.5874C0.870963 10.7172 0.794678 10.8933 0.794678 11.0769C0.794678 11.2605 0.870963 11.4366 1.00675 11.5665C1.14254 11.6963 1.32671 11.7692 1.51874 11.7692H16.1029C16.2609 12.3629 16.6213 12.8894 17.1272 13.2654C17.6331 13.6414 18.2556 13.8455 18.8963 13.8455C19.537 13.8455 20.1595 13.6414 20.6654 13.2654C21.1713 12.8894 21.5317 12.3629 21.6897 11.7692H21.7926C21.9846 11.7692 22.1688 11.6963 22.3046 11.5665C22.4403 11.4366 22.5166 11.2605 22.5166 11.0769C22.5166 10.8933 22.4403 10.7172 22.3046 10.5874C22.1688 10.4575 21.9846 10.3846 21.7926 10.3846ZM18.8963 12.4615C18.6099 12.4615 18.3299 12.3803 18.0918 12.2282C17.8536 12.076 17.668 11.8598 17.5584 11.6068C17.4488 11.3538 17.4201 11.0754 17.476 10.8068C17.5319 10.5382 17.6698 10.2915 17.8723 10.0978C18.0748 9.9042 18.3329 9.77233 18.6138 9.7189C18.8947 9.66548 19.1859 9.6929 19.4505 9.7977C19.7151 9.90249 19.9413 10.08 20.1004 10.3077C20.2595 10.5354 20.3444 10.8031 20.3444 11.0769C20.3444 11.4441 20.1919 11.7963 19.9203 12.056C19.6487 12.3157 19.2804 12.4615 18.8963 12.4615ZM21.7926 17.3077H14.4491C14.2911 16.714 13.9306 16.1875 13.4247 15.8115C12.9189 15.4355 12.2964 15.2314 11.6557 15.2314C11.0149 15.2314 10.3924 15.4355 9.88656 15.8115C9.38068 16.1875 9.02025 16.714 8.86221 17.3077H1.51874C1.32671 17.3077 1.14254 17.3806 1.00675 17.5105C0.870963 17.6403 0.794678 17.8164 0.794678 18C0.794678 18.1836 0.870963 18.3597 1.00675 18.4895C1.14254 18.6194 1.32671 18.6923 1.51874 18.6923H8.86221C9.02025 19.286 9.38068 19.8125 9.88656 20.1885C10.3924 20.5645 11.0149 20.7686 11.6557 20.7686C12.2964 20.7686 12.9189 20.5645 13.4247 20.1885C13.9306 19.8125 14.2911 19.286 14.4491 18.6923H21.7926C21.9846 18.6923 22.1688 18.6194 22.3046 18.4895C22.4403 18.3597 22.5166 18.1836 22.5166 18C22.5166 17.8164 22.4403 17.6403 22.3046 17.5105C22.1688 17.3806 21.9846 17.3077 21.7926 17.3077ZM11.6557 19.3846C11.3692 19.3846 11.0893 19.3034 10.8511 19.1513C10.613 18.9991 10.4274 18.7829 10.3178 18.5299C10.2081 18.2769 10.1795 17.9985 10.2353 17.7299C10.2912 17.4613 10.4291 17.2146 10.6317 17.0209C10.8342 16.8273 11.0922 16.6954 11.3731 16.642C11.654 16.5886 11.9452 16.616 12.2098 16.7208C12.4744 16.8256 12.7006 17.003 12.8597 17.2307C13.0189 17.4584 13.1038 17.7261 13.1038 18C13.1038 18.3672 12.9512 18.7194 12.6796 18.9791C12.4081 19.2387 12.0397 19.3846 11.6557 19.3846Z" fill="#8CAAC5"/>
</g>
<defs>
<clipPath id="clip0_119_1712">
<rect width="23.1701" height="22.1538" fill="white" transform="translate(0.0705566)"/>
</clipPath>
</defs>
</svg>
