<svg width="24" height="24" viewBox="0 0 24 24" fill="none" xmlns="http://www.w3.org/2000/svg">
<path d="M3.75003 9.776C3.86203 9.759 3.97703 9.75 4.09403 9.75H19.906C20.023 9.75 20.138 9.759 20.25 9.776M3.75003 9.776C3.16479 9.86663 2.63888 10.1843 2.28638 10.6602C1.93387 11.1361 1.78319 11.7318 1.86703 12.318L2.72403 18.318C2.80057 18.8541 3.06792 19.3447 3.47701 19.6996C3.88609 20.0545 4.40945 20.2499 4.95103 20.25H19.05C19.5916 20.2499 20.115 20.0545 20.524 19.6996C20.9331 19.3447 21.2005 18.8541 21.277 18.318L22.134 12.318C22.2179 11.7318 22.0672 11.1361 21.7147 10.6602C21.3622 10.1843 20.8353 9.86663 20.25 9.776M3.75003 9.776L3.75103 6C3.75103 5.40344 3.98794 4.83129 4.40968 4.40936C4.83142 3.98744 5.40346 3.75027 6.00003 3.75H9.87903C10.2767 3.75035 10.658 3.90862 10.939 4.19L13.061 6.31C13.3421 6.59138 13.7233 6.74965 14.121 6.75H18C18.5968 6.75 19.1691 6.98705 19.591 7.40901C20.013 7.83097 20.25 8.40326 20.25 9V9.776" stroke="#5E84A3" stroke-width="1.5" stroke-linecap="round" stroke-linejoin="round"/>
</svg>
