<svg width="18" height="15" viewBox="0 0 18 15" fill="none" xmlns="http://www.w3.org/2000/svg">
<path d="M6.0945 1.18494H6.64333L7.94125 3.99931C8.225 4.28119 8.60063 4.43681 9 4.43681M6.0945 1.18494C6.16256 1.00653 6.25606 0.838028 6.37273 0.684937L4 0.684937C1.93125 0.684937 0.25 2.35994 0.25 4.43494V10.3849C0.25 12.4537 1.93125 14.1349 4 14.1349H14C16.0688 14.1349 17.75 12.4537 17.75 10.3849V4.43494C17.75 2.35994 16.0688 0.684937 14 0.684937L11.627 0.684937C11.7438 0.837995 11.8374 1.00651 11.9055 1.18494M6.0945 1.18494H4C2.20685 1.18494 0.75 2.63662 0.75 4.43494V10.3849C0.75 12.1775 2.20739 13.6349 4 13.6349H14C15.7926 13.6349 17.25 12.1775 17.25 10.3849V4.43494C17.25 2.63662 15.7932 1.18494 14 1.18494H11.9055M6.0945 1.18494L10.4148 4.34972L10.4143 4.35026L10.0606 3.99681M11.9055 1.18494H11.3566C11.4742 1.40239 11.5373 1.64759 11.5371 1.89926C11.5369 2.29661 11.379 2.67763 11.0981 2.95869L10.0606 3.99681M11.9055 1.18494C11.9919 1.41098 12.0373 1.65293 12.0371 1.89955C12.0368 2.42935 11.8263 2.93738 11.4518 3.31212L11.4518 3.31213L10.4153 4.34922L10.0606 3.99681M10.0606 3.99681C9.92171 4.13663 9.75644 4.24751 9.57438 4.32304C9.39232 4.39856 9.1971 4.43723 9 4.43681M9 4.43681V4.93681C8.99982 4.93681 8.99964 4.93681 8.99946 4.93681C8.99929 4.93681 8.99911 4.93681 8.99893 4.93681L9 4.43681ZM15.328 5.59301L15.328 5.593C15.5897 5.48844 15.7992 5.28419 15.9103 5.02519C16.0214 4.76619 16.0251 4.47365 15.9206 4.21193C15.816 3.95021 15.6118 3.74075 15.3528 3.62962C15.0938 3.5185 14.8012 3.51481 14.5395 3.61936C14.5395 3.61936 14.5395 3.61937 14.5395 3.61937L9.18203 5.75936L9.1804 5.76001C9.06487 5.80663 8.93576 5.80663 8.82023 5.76001L8.81858 5.75935L3.46045 3.61935L3.45101 3.61558L3.44142 3.6122C3.18262 3.52084 2.89851 3.53312 2.64855 3.64646C2.39859 3.7598 2.20214 3.96541 2.10032 4.22028L2.55476 4.40184L2.10032 4.22028C1.99849 4.47514 1.99918 4.75951 2.10223 5.01389C2.20528 5.26826 2.40272 5.47292 2.65322 5.58505L2.66255 5.58923L2.67205 5.59302L8.03017 7.73302L8.03045 7.73313C8.65319 7.98142 9.34744 7.98142 9.97018 7.73313L9.97047 7.73301L15.328 5.59301Z" stroke="white"/>
</svg>
