<svg width="24" height="24" viewBox="0 0 24 24" fill="none" xmlns="http://www.w3.org/2000/svg">
<path d="M9.89062 11.25H14.1094V12.6562H9.89062V11.25Z" fill="#D9D9D9"/>
<path d="M19.4709 12.6566H15.5156V13.3597C15.5156 13.7483 15.2011 14.0628 14.8125 14.0628H9.1875C8.79891 14.0628 8.48438 13.7483 8.48438 13.3597V12.6566H4.52911C4.08638 12.6569 3.65479 12.5178 3.2956 12.2589C2.93642 12.0001 2.6679 11.6347 2.52816 11.2146L0 3.62891V18.9847C0 20.1478 0.946312 21.0941 2.10938 21.0941H21.8906C23.0537 21.0941 24 20.1477 24 18.9847V3.62947L21.4717 11.2146C21.332 11.6347 21.0635 12.0001 20.7044 12.259C20.3452 12.5178 19.9136 12.6569 19.4709 12.6566H19.4709Z" fill="#D9D9D9"/>
<path d="M14.8124 0H9.18742C8.02431 0 7.07805 0.946312 7.07805 2.10938V2.8125H1.20972L3.86162 10.7693C3.90831 10.9094 3.9979 11.0312 4.11768 11.1174C4.23746 11.2037 4.38137 11.2501 4.52898 11.25H8.4843V10.5469C8.4843 10.1583 8.79883 9.84375 9.18742 9.84375H14.8124C15.201 9.84375 15.5155 10.1583 15.5155 10.5469V11.25H19.4708C19.7736 11.25 20.0421 11.057 20.1382 10.7693L22.7903 2.8125H16.9218V2.10938C16.9218 0.946266 15.9755 0 14.8124 0ZM8.4843 2.8125V2.10938C8.4843 1.72139 8.79944 1.40625 9.18742 1.40625H14.8124C15.2004 1.40625 15.5155 1.72139 15.5155 2.10938V2.8125H8.4843Z" fill="#D9D9D9"/>
</svg>
