<svg width="20" height="20" viewBox="0 0 20 20" fill="none" xmlns="http://www.w3.org/2000/svg">
<g clip-path="url(#clip0_119_1922)">
<path d="M19.4841 6.29402C18.7987 5.60863 17.6835 5.60867 16.9979 6.29418L15.2351 8.05848V3.41508C15.2351 2.94555 15.0523 2.50414 14.7202 2.17215L13.063 0.514844C12.731 0.182813 12.2896 0 11.82 0H1.75854C0.789287 0 0.000732422 0.788555 0.000732422 1.75781V18.2422C0.000732422 19.2114 0.789287 20 1.75854 20H13.4773C14.4466 20 15.2351 19.2114 15.2351 18.2422V13.0325L19.484 8.77996C20.171 8.09301 20.1712 6.98105 19.4841 6.29402ZM11.7195 1.17188C11.8302 1.17188 12.0435 1.1527 12.2344 1.34348L13.8916 3.00078C14.0776 3.18676 14.0633 3.39055 14.0633 3.51562H11.7195V1.17188ZM14.0632 18.2422C14.0632 18.5653 13.8004 18.8281 13.4773 18.8281H1.75854C1.43546 18.8281 1.17261 18.5653 1.17261 18.2422V1.75781C1.17261 1.43473 1.43546 1.17188 1.75854 1.17188H10.5476V4.10156C10.5476 4.42516 10.81 4.6875 11.1335 4.6875H14.0632V9.23137L12.3345 10.9616L11.5062 11.7898C11.4419 11.8542 11.3934 11.9326 11.3647 12.0189L10.536 14.5048C10.5016 14.608 10.4966 14.7188 10.5216 14.8247C10.5466 14.9307 10.6006 15.0275 10.6775 15.1045C10.7545 15.1814 10.8513 15.2354 10.9572 15.2604C11.0632 15.2854 11.1739 15.2804 11.2772 15.246L13.7631 14.4173C13.8494 14.3886 13.9278 14.3401 13.9921 14.2758L14.0632 14.2047V18.2422ZM12.7492 12.2042L13.5778 13.0328L13.2613 13.3493L12.0183 13.7636L12.4326 12.5207L12.7492 12.2042ZM14.4063 12.204L13.5776 11.3754L16.3942 8.55637L17.2229 9.385L14.4063 12.204ZM18.6552 7.95148L18.0512 8.55602L17.2226 7.72738L17.8268 7.12266C18.0554 6.89418 18.427 6.89422 18.6555 7.12266C18.8839 7.35117 18.8851 7.7216 18.6552 7.95148Z" fill="white"/>
<path d="M11.1333 5.85938H2.93018C2.60658 5.85938 2.34424 6.12172 2.34424 6.44531C2.34424 6.76891 2.60658 7.03125 2.93018 7.03125H11.1333C11.4569 7.03125 11.7192 6.76891 11.7192 6.44531C11.7192 6.12172 11.4569 5.85938 11.1333 5.85938ZM8.78955 8.20312H2.93018C2.60658 8.20312 2.34424 8.46547 2.34424 8.78906C2.34424 9.11266 2.60658 9.375 2.93018 9.375H8.78955C9.11314 9.375 9.37549 9.11266 9.37549 8.78906C9.37549 8.46547 9.11314 8.20312 8.78955 8.20312ZM8.78955 10.5469H2.93018C2.60658 10.5469 2.34424 10.8092 2.34424 11.1328C2.34424 11.4564 2.60658 11.7188 2.93018 11.7188H8.78955C9.11314 11.7188 9.37549 11.4564 9.37549 11.1328C9.37549 10.8092 9.11314 10.5469 8.78955 10.5469ZM8.78955 12.8906H2.93018C2.60658 12.8906 2.34424 13.153 2.34424 13.4766C2.34424 13.8002 2.60658 14.0625 2.93018 14.0625H8.78955C9.11314 14.0625 9.37549 13.8002 9.37549 13.4766C9.37549 13.153 9.11314 12.8906 8.78955 12.8906ZM11.1333 16.4844H7.61768C7.29408 16.4844 7.03174 16.7467 7.03174 17.0703C7.03174 17.3939 7.29408 17.6562 7.61768 17.6562H11.1333C11.4569 17.6562 11.7192 17.3939 11.7192 17.0703C11.7192 16.7467 11.4569 16.4844 11.1333 16.4844Z" fill="white"/>
</g>
<defs>
<clipPath id="clip0_119_1922">
<rect width="20" height="20" fill="white"/>
</clipPath>
</defs>
</svg>
