<svg width="200" height="29" viewBox="0 0 200 29" fill="none" xmlns="http://www.w3.org/2000/svg">
<g clip-path="url(#clip0_1_24056)">
<path d="M18.3449 14.323C18.1257 13.8713 17.8063 13.4782 17.412 13.1752C16.9809 12.876 16.4675 12.7256 15.9468 12.746C15.6607 12.7452 15.376 12.7872 15.1018 12.8707C14.7991 12.9648 14.5124 13.1062 14.252 13.2899C13.9273 13.5157 13.6261 13.7749 13.3533 14.0635C13.0017 14.431 12.6753 14.8229 12.3765 15.2363V20.4316C12.8752 21.1144 13.4617 21.7254 14.1201 22.2481C14.6203 22.6427 15.2319 22.8616 15.8637 22.872C16.373 22.8864 16.8732 22.7324 17.2899 22.4328C17.6921 22.128 18.0253 21.7382 18.2667 21.2899C18.5357 20.7915 18.7254 20.2524 18.8284 19.6929C18.9409 19.1043 18.9981 18.506 18.9993 17.9063C19.001 17.2595 18.952 16.6137 18.8528 15.9749C18.768 15.4008 18.5966 14.8435 18.3449 14.323Z" fill="#057EE7"/>
<path d="M13.5632 0C11.7724 0.00537755 10.001 0.378349 8.35403 1.09677C6.70706 1.81519 5.21814 2.86442 3.97567 4.18216V0H0.0244141V14.2832C0.0244141 22.1734 6.10026 28.5714 13.5876 28.5714C21.075 28.5714 27.1557 22.1734 27.1557 14.2832C27.1557 6.39301 21.0555 0 13.5632 0ZM23.0335 21.345C22.7768 22.364 22.3398 23.3263 21.7441 24.1847C21.2072 24.9474 20.4986 25.567 19.6781 25.9913C18.8094 26.4263 17.8517 26.6435 16.8844 26.6251C16.3921 26.6301 15.9008 26.5799 15.4192 26.4754C14.9718 26.3712 14.541 26.2032 14.1395 25.9763C13.7113 25.7408 13.3086 25.4598 12.938 25.1379C12.5115 24.763 12.1132 24.356 11.7463 23.9201V25.622C11.7509 25.7391 11.7184 25.8546 11.6535 25.9513C11.5724 26.0506 11.4658 26.1249 11.3458 26.1659C11.1601 26.2339 10.9662 26.2759 10.7695 26.2907C10.5302 26.2907 10.2371 26.3256 9.89523 26.3256C9.55334 26.3256 9.24076 26.3256 9.00632 26.2907C8.81281 26.2755 8.62222 26.2335 8.43976 26.1659C8.32179 26.1262 8.21807 26.0515 8.14183 25.9513C8.08079 25.8531 8.05015 25.7383 8.05392 25.622V2.55022C8.05206 2.43654 8.08824 2.32561 8.15648 2.23581C8.2527 2.1265 8.37581 2.04551 8.51302 2.00125C8.7262 1.92474 8.94755 1.87448 9.17238 1.85153C9.86898 1.77844 10.5711 1.77844 11.2677 1.85153C11.4924 1.8753 11.7136 1.92554 11.927 2.00125C12.0635 2.04398 12.1855 2.1253 12.2787 2.23581C12.3469 2.32561 12.3831 2.43654 12.3812 2.55022V11.204C12.7425 10.8387 13.133 10.5048 13.5486 10.2059C13.9154 9.92642 14.308 9.68406 14.7207 9.48222C15.1061 9.30235 15.5111 9.17 15.9271 9.08796C16.3567 9.00208 16.7935 8.96029 17.2312 8.96319C18.2349 8.93009 19.2292 9.16945 20.1128 9.65689C20.9023 10.1083 21.5727 10.7488 22.0665 11.5234C22.5872 12.3662 22.9561 13.2975 23.1556 14.2732C23.3887 15.3582 23.5033 16.4663 23.4975 17.577C23.508 18.8485 23.352 20.1158 23.0335 21.345V21.345Z" fill="#057EE7"/>
<path d="M36.5332 25.6216C36.534 25.7336 36.4978 25.8426 36.4306 25.931C36.3359 26.0365 36.214 26.1126 36.079 26.1506C35.863 26.2191 35.6402 26.2626 35.4148 26.2804C35.0673 26.3137 34.7185 26.3287 34.3695 26.3253C34.019 26.3286 33.6685 26.3136 33.3195 26.2804C33.0957 26.2622 32.8745 26.2187 32.6601 26.1506C32.5251 26.1126 32.4032 26.0365 32.3084 25.931C32.2413 25.8426 32.2051 25.7336 32.2059 25.6216V2.54987C32.204 2.43619 32.2402 2.32527 32.3084 2.23547C32.4017 2.12496 32.5236 2.04364 32.6601 2.0009C32.8735 1.9252 33.0948 1.87496 33.3195 1.85118C33.6681 1.81149 34.0188 1.79316 34.3695 1.79629C34.7187 1.79294 35.0678 1.81127 35.4148 1.85118C35.6412 1.87421 35.8641 1.92447 36.079 2.0009C36.2155 2.04364 36.3374 2.12496 36.4306 2.23547C36.4989 2.32527 36.5351 2.43619 36.5332 2.54987V25.6216Z" fill="#057EE7"/>
<path d="M55.3713 25.6222C55.3736 25.7321 55.3429 25.84 55.2834 25.9316C55.2068 26.0347 55.1011 26.1113 54.9806 26.1512C54.7979 26.2189 54.6075 26.2625 54.414 26.2809C54.1205 26.3141 53.8253 26.3291 53.53 26.3259C53.2233 26.3295 52.9167 26.3145 52.6118 26.2809C52.4214 26.2633 52.2341 26.2196 52.055 26.1512C51.9386 26.1085 51.8368 26.0322 51.7619 25.9316C51.7039 25.8396 51.6749 25.7316 51.6789 25.6222V23.8156C50.9423 24.6639 50.0683 25.3763 49.0952 25.9216C48.2567 26.3803 47.321 26.6219 46.3699 26.6253C45.4582 26.6548 44.5517 26.474 43.7178 26.0963C43.0324 25.7712 42.4366 25.2773 41.9839 24.659C41.5318 24.0267 41.2111 23.3066 41.0413 22.543C40.8329 21.5595 40.7379 20.5546 40.758 19.5486V9.98151C40.7544 9.8707 40.7871 9.76183 40.8508 9.67209C40.9407 9.56563 41.0598 9.48914 41.1927 9.4525C41.4119 9.38368 41.638 9.34015 41.8667 9.32274C42.2109 9.28982 42.5565 9.27483 42.9021 9.27783C43.2527 9.27452 43.6032 9.28951 43.9522 9.32274C44.176 9.34093 44.3972 9.38445 44.6116 9.4525C44.7466 9.49057 44.8685 9.56666 44.9632 9.67209C45.0304 9.76055 45.0666 9.86953 45.0658 9.98151V18.8149C45.0495 19.4461 45.1019 20.0771 45.2221 20.6964C45.3163 21.095 45.4819 21.4723 45.7105 21.8093C45.9186 22.1135 46.1972 22.3604 46.5213 22.528C46.8769 22.7047 47.2688 22.7919 47.6642 22.7825C48.2659 22.7629 48.8458 22.5478 49.3199 22.1687C49.9831 21.6493 50.5804 21.0475 51.0977 20.377V9.98151C51.0941 9.8707 51.1268 9.76183 51.1905 9.67209C51.2804 9.56563 51.3995 9.48914 51.5324 9.4525C51.7484 9.384 51.9712 9.34048 52.1966 9.32274C52.544 9.28938 52.8929 9.27438 53.2418 9.27783C53.5924 9.27452 53.9429 9.28951 54.2919 9.32274C54.5126 9.34027 54.7306 9.38381 54.9415 9.4525C55.0732 9.49177 55.1916 9.56781 55.2834 9.67209C55.3553 9.75817 55.3936 9.86836 55.3909 9.98151L55.3713 25.6222Z" fill="#057EE7"/>
<path d="M73.8627 17.3427C73.8977 17.7714 73.772 18.1978 73.511 18.5354C73.3853 18.6684 73.2329 18.7721 73.0643 18.8393C72.8957 18.9065 72.7149 18.9356 72.5342 18.9247H63.2153C63.2085 19.5369 63.2874 20.1469 63.4497 20.7363C63.5868 21.251 63.8393 21.726 64.1872 22.1237C64.546 22.5177 64.9937 22.8158 65.4913 22.9921C66.1075 23.2052 66.7555 23.3065 67.4059 23.2915C68.0739 23.3002 68.7412 23.2434 69.3986 23.1218C69.8935 23.0292 70.3827 22.9076 70.8638 22.7575C71.279 22.6228 71.6258 22.498 71.9042 22.3882C72.1156 22.2916 72.3422 22.2341 72.5733 22.2185C72.6621 22.2161 72.75 22.2386 72.8273 22.2834C72.9073 22.3355 72.9689 22.4125 73.0031 22.503C73.0544 22.6458 73.0856 22.7954 73.0959 22.9471C73.0959 23.1418 73.0959 23.3863 73.0959 23.6758C73.0959 23.9652 73.0959 24.1748 73.0959 24.3345C73.0857 24.4901 73.0678 24.645 73.0422 24.7987C73.0236 24.9113 72.989 25.0206 72.9396 25.1231C72.8916 25.2163 72.8308 25.3021 72.7589 25.3776C72.5761 25.5247 72.3695 25.6379 72.1484 25.712C71.735 25.8799 71.3107 26.0183 70.8785 26.1262C70.2955 26.2739 69.7053 26.3905 69.1104 26.4755C68.4051 26.5783 67.6934 26.6283 66.981 26.6253C65.7674 26.6487 64.5582 26.47 63.4009 26.0962C62.4329 25.7823 61.5534 25.2345 60.8367 24.4992C60.1191 23.7386 59.5914 22.8125 59.2982 21.7993C58.9459 20.5579 58.7812 19.2687 58.8098 17.9765C58.7943 16.7015 58.9739 15.4318 59.3422 14.2135C59.6588 13.1655 60.1861 12.1966 60.8905 11.3689C61.5602 10.5918 62.3957 9.9822 63.3325 9.5872C64.3729 9.16377 65.4851 8.95514 66.6049 8.97335C67.727 8.94518 68.8437 9.14185 69.8919 9.55227C70.7502 9.90459 71.5174 10.4545 72.1337 11.1593C72.7277 11.8658 73.1658 12.6947 73.4182 13.5897C73.7036 14.5795 73.8435 15.6072 73.8334 16.639L73.8627 17.3427ZM69.6721 16.08C69.7609 15.0507 69.5043 14.021 68.9444 13.1605C68.6564 12.797 68.2864 12.5104 67.8662 12.3253C67.4459 12.1401 66.988 12.062 66.5316 12.0975C66.0354 12.0851 65.5434 12.1928 65.0957 12.4119C64.6994 12.6138 64.3535 12.9057 64.0847 13.2653C63.8034 13.6435 63.5931 14.0715 63.4644 14.5279C63.3195 15.0329 63.2359 15.5542 63.2153 16.08H69.6721Z" fill="#057EE7"/>
<path d="M92.559 25.6222C92.5598 25.7342 92.5237 25.8432 92.4565 25.9317C92.3647 26.0359 92.2463 26.112 92.1146 26.1512C91.9004 26.2202 91.6791 26.2637 91.4552 26.281C90.758 26.3409 90.0571 26.3409 89.3599 26.281C89.1344 26.2641 88.9115 26.2205 88.6957 26.1512C88.5645 26.1108 88.4464 26.035 88.3538 25.9317C88.2866 25.8432 88.2505 25.7342 88.2512 25.6222V12.976H82.5661V25.6422C82.5669 25.7542 82.5307 25.8632 82.4635 25.9516C82.3718 26.0559 82.2534 26.1319 82.1216 26.1712C81.9075 26.2401 81.6862 26.2837 81.4623 26.301C81.11 26.334 80.7562 26.349 80.4024 26.3459C80.0568 26.3489 79.7112 26.3339 79.367 26.301C79.1398 26.2842 78.9153 26.2406 78.6979 26.1712C78.5637 26.1344 78.4431 26.058 78.3511 25.9516C78.2874 25.8619 78.2547 25.753 78.2583 25.6422V12.976H76.334C76.2202 12.9707 76.1112 12.9281 76.0232 12.8543C75.9352 12.7805 75.8728 12.6797 75.8456 12.5667C75.7151 12.1204 75.6606 11.6545 75.6844 11.1893C75.6803 10.901 75.6933 10.6126 75.7234 10.3259C75.7415 10.1384 75.7825 9.954 75.8456 9.77695C75.882 9.66062 75.9539 9.55922 76.0507 9.4875C76.1403 9.42671 76.246 9.39536 76.3535 9.39767H78.2583V7.98531C78.2447 7.04523 78.3515 6.10737 78.5758 5.19555C78.7538 4.46483 79.0873 3.78322 79.5526 3.19929C79.9902 2.66188 80.5552 2.24783 81.1937 1.99654C81.9477 1.71742 82.746 1.58373 83.5478 1.60228C83.7969 1.60228 84.0362 1.60228 84.3097 1.63722C84.5833 1.67215 84.7982 1.6971 85.0424 1.74202C85.2452 1.78443 85.4457 1.83773 85.6431 1.90172C85.7714 1.93813 85.8911 2.00097 85.9948 2.08638C86.0576 2.14979 86.1089 2.22415 86.1462 2.30596C86.1964 2.40458 86.231 2.5107 86.2487 2.62037C86.2819 2.7849 86.3031 2.95171 86.3122 3.11944C86.3122 3.32239 86.3122 3.57691 86.3122 3.88301C86.3282 4.27965 86.2971 4.67682 86.2194 5.06579C86.1559 5.29536 86.0338 5.41014 85.8482 5.41014C85.7705 5.40974 85.6932 5.39797 85.6187 5.37521L85.311 5.28537C85.1889 5.25044 85.0472 5.2205 84.8861 5.19056C84.6875 5.15724 84.4865 5.1422 84.2853 5.14564C84.0305 5.12455 83.7747 5.17196 83.5434 5.28314C83.312 5.39433 83.1132 5.56543 82.9666 5.77945C82.6395 6.42127 82.4956 7.14415 82.5515 7.86554V9.36273H91.2403C91.5893 9.33695 91.9358 9.43962 92.2171 9.65219C92.3331 9.77302 92.422 9.91817 92.4777 10.0776C92.5334 10.237 92.5544 10.4069 92.5395 10.5755L92.559 25.6222ZM92.8863 4.71145C92.8948 5.08083 92.857 5.44981 92.7739 5.80939C92.7132 6.08096 92.5796 6.32984 92.3881 6.52805C92.1784 6.72399 91.9198 6.85697 91.6408 6.91233C91.2539 6.99575 90.8591 7.03426 90.4637 7.02711C90.0668 7.03359 89.6704 6.99509 89.2818 6.91233C88.9975 6.85563 88.7329 6.72305 88.515 6.52805C88.3216 6.33044 88.1863 6.08151 88.1242 5.80939C88.0411 5.44981 88.0034 5.08083 88.0119 4.71145C88.0035 4.35032 88.0413 3.98961 88.1242 3.63847C88.1884 3.3672 88.3235 3.11882 88.515 2.91981C88.7324 2.7201 88.9965 2.58089 89.2818 2.51557C89.6698 2.42828 90.0665 2.38808 90.4637 2.3958C90.8594 2.38748 91.2546 2.42769 91.6408 2.51557C91.9208 2.57974 92.1788 2.71932 92.3881 2.91981C92.5782 3.11911 92.7116 3.36755 92.7739 3.63847C92.8569 3.98961 92.8947 4.35032 92.8863 4.71145V4.71145Z" fill="#057EE7"/>
<path d="M111.055 17.3427C111.09 17.7714 110.965 18.1978 110.704 18.5354C110.578 18.6682 110.425 18.7716 110.257 18.8388C110.088 18.906 109.907 18.9353 109.727 18.9247H100.408C100.402 19.5365 100.479 20.1462 100.637 20.7363C100.778 21.2507 101.032 21.7253 101.38 22.1237C101.739 22.5177 102.186 22.8158 102.684 22.9921C103.3 23.2056 103.948 23.307 104.599 23.2915C105.267 23.3 105.934 23.2431 106.591 23.1218C107.086 23.0292 107.575 22.9076 108.056 22.7575C108.472 22.6228 108.818 22.498 109.092 22.3882C109.305 22.2918 109.533 22.2343 109.766 22.2185C109.855 22.2161 109.943 22.2386 110.02 22.2834C110.099 22.3358 110.159 22.4128 110.191 22.503C110.246 22.6448 110.279 22.7947 110.289 22.9471C110.289 23.1418 110.313 23.3863 110.313 23.6758C110.313 23.9652 110.313 24.1748 110.313 24.3345C110.303 24.4901 110.285 24.645 110.259 24.7987C110.241 24.9113 110.206 25.0206 110.157 25.1231C110.109 25.2163 110.048 25.3021 109.976 25.3776C109.793 25.5247 109.587 25.6379 109.365 25.712C108.952 25.8792 108.527 26.0176 108.096 26.1262C107.513 26.2739 106.922 26.3905 106.327 26.4755C105.622 26.5783 104.91 26.6283 104.198 26.6253C102.984 26.6487 101.775 26.47 100.618 26.0962C99.6488 25.7818 98.7678 25.2341 98.0489 24.4992C97.3344 23.737 96.8086 22.8113 96.5153 21.7993C96.1629 20.5579 95.9982 19.2687 96.0269 17.9765C96.0089 16.7013 96.1885 15.4313 96.5592 14.2135C96.8762 13.1667 97.4017 12.1982 98.1026 11.3689C98.7808 10.5902 99.6245 9.98076 100.569 9.5872C101.61 9.16377 102.722 8.95514 103.841 8.97335C104.964 8.94518 106.08 9.14185 107.128 9.55227C107.987 9.90459 108.754 10.4545 109.37 11.1593C109.964 11.8658 110.402 12.6947 110.655 13.5897C110.94 14.5795 111.08 15.6072 111.07 16.639L111.055 17.3427ZM106.865 16.08C106.954 15.0499 106.696 14.0194 106.132 13.1605C105.845 12.7968 105.476 12.5099 105.057 12.3247C104.637 12.1395 104.18 12.0615 103.724 12.0975C103.228 12.0851 102.736 12.1928 102.288 12.4119C101.892 12.6138 101.546 12.9057 101.277 13.2653C100.994 13.6423 100.784 14.0707 100.657 14.5279C100.512 15.0329 100.428 15.5542 100.408 16.08H106.865Z" fill="#057EE7"/>
<path d="M118.933 25.6221C118.934 25.7341 118.898 25.8431 118.831 25.9315C118.736 26.037 118.614 26.1131 118.479 26.1511C118.265 26.2192 118.044 26.2627 117.82 26.2809C117.123 26.3408 116.422 26.3408 115.725 26.2809C115.501 26.2627 115.28 26.2192 115.065 26.1511C114.93 26.1131 114.808 26.037 114.714 25.9315C114.642 25.8455 114.603 25.7353 114.606 25.6221V2.55038C114.606 2.4361 114.644 2.32511 114.714 2.23597C114.807 2.12546 114.929 2.04415 115.065 2.00141C115.279 1.9257 115.5 1.87546 115.725 1.85169C116.421 1.7786 117.123 1.7786 117.82 1.85169C118.045 1.87546 118.266 1.9257 118.479 2.00141C118.616 2.04415 118.738 2.12546 118.831 2.23597C118.899 2.32578 118.935 2.4367 118.933 2.55038V25.6221Z" fill="#057EE7"/>
<path d="M137.757 25.6218C137.76 25.7381 137.73 25.8529 137.669 25.9511C137.597 26.0513 137.496 26.1262 137.381 26.1657C137.2 26.2345 137.011 26.2765 136.819 26.2905C136.531 26.3169 136.243 26.3286 135.954 26.3254C135.656 26.3291 135.358 26.3175 135.061 26.2905C134.87 26.2755 134.683 26.2335 134.504 26.1657C134.383 26.1259 134.276 26.0514 134.196 25.9511C134.13 25.8549 134.096 25.7394 134.098 25.6218V23.885C133.382 24.6829 132.544 25.357 131.617 25.8813C130.714 26.3496 129.715 26.5958 128.702 26.6001C127.689 26.6044 126.688 26.3668 125.781 25.9062C124.993 25.4525 124.323 24.8124 123.827 24.0397C123.294 23.2013 122.918 22.2688 122.718 21.2899C122.485 20.2049 122.371 19.0969 122.377 17.9861C122.36 16.7194 122.506 15.4559 122.811 14.2281C123.063 13.209 123.497 12.2462 124.091 11.3884C124.634 10.6201 125.353 9.99968 126.186 9.58183C127.087 9.14369 128.075 8.92665 129.073 8.94802C129.881 8.93771 130.68 9.12057 131.407 9.48202C132.174 9.89394 132.874 10.4242 133.483 11.0541V2.56998C133.483 2.45814 133.515 2.34878 133.576 2.25557C133.666 2.1423 133.786 2.05891 133.923 2.01602C134.136 1.94032 134.357 1.89007 134.582 1.8663C135.279 1.79977 135.98 1.79977 136.677 1.8663C136.9 1.88917 137.12 1.93944 137.332 2.01602C137.465 2.06297 137.583 2.14573 137.674 2.25557C137.742 2.34538 137.778 2.4563 137.776 2.56998L137.757 25.6218ZM133.463 15.1414C132.953 14.4555 132.356 13.8428 131.686 13.3198C131.176 12.9164 130.552 12.6939 129.908 12.686C129.388 12.6711 128.876 12.821 128.443 13.1152C128.03 13.4105 127.695 13.8046 127.466 14.2631C127.212 14.7711 127.027 15.3116 126.914 15.87C126.796 16.468 126.737 17.0766 126.738 17.6866C126.736 18.327 126.787 18.9664 126.889 19.5981C126.973 20.1716 127.137 20.7297 127.378 21.2549C127.591 21.7162 127.911 22.1171 128.311 22.4228C128.741 22.7254 129.254 22.8793 129.776 22.8619C130.069 22.8619 130.36 22.8182 130.64 22.7322C130.945 22.6302 131.234 22.4858 131.5 22.303C131.827 22.0739 132.129 21.8114 132.404 21.5195C132.76 21.1431 133.098 20.7483 133.415 20.3367L133.463 15.1414Z" fill="#057EE7"/>
<path d="M168.644 24.6091C168.649 24.8559 168.602 25.1009 168.507 25.3277C168.422 25.528 168.295 25.7068 168.136 25.8517C167.978 25.995 167.791 26.1006 167.589 26.1612C167.38 26.2251 167.162 26.2571 166.944 26.256H165.02C164.671 26.2634 164.322 26.2214 163.984 26.1312C163.685 26.0467 163.408 25.8949 163.174 25.6871C162.897 25.4301 162.656 25.1344 162.461 24.8087C162.236 24.4394 161.972 23.9653 161.689 23.3764L156.16 12.7663C155.834 12.1341 155.509 11.4521 155.183 10.7201C154.851 9.99148 154.553 9.27782 154.289 8.58911H154.255C154.301 9.43419 154.335 10.266 154.358 11.0844C154.382 11.9229 154.392 12.7862 154.392 13.6746V25.5523C154.393 25.6644 154.361 25.7742 154.299 25.8667C154.215 25.9777 154.102 26.061 153.972 26.1063C153.77 26.1827 153.56 26.233 153.347 26.256C153.009 26.294 152.67 26.3107 152.331 26.3059C152.005 26.3095 151.678 26.2929 151.354 26.256C151.143 26.2344 150.936 26.1841 150.739 26.1063C150.613 26.0626 150.505 25.9785 150.431 25.8667C150.373 25.7727 150.342 25.6636 150.343 25.5523V5.16553C150.328 4.93495 150.364 4.70384 150.448 4.4895C150.533 4.27517 150.664 4.08316 150.831 3.92785C151.155 3.65044 151.567 3.50473 151.989 3.51862H154.431C154.801 3.50978 155.17 3.54834 155.53 3.6334C155.817 3.70344 156.087 3.83064 156.326 4.0077C156.585 4.21013 156.808 4.45661 156.985 4.73634C157.225 5.10279 157.439 5.48639 157.625 5.88418L161.948 14.1836L162.695 15.6808C162.944 16.1799 163.183 16.6789 163.408 17.1381C163.633 17.5972 163.862 18.1013 164.077 18.5704C164.292 19.0395 164.507 19.5036 164.712 19.9728C164.678 19.1543 164.653 18.3009 164.634 17.4126C164.614 16.5242 164.634 15.6758 164.634 14.8673V4.20234C164.632 4.08865 164.668 3.97773 164.737 3.88793C164.828 3.77634 164.945 3.69045 165.078 3.6384C165.282 3.55751 165.496 3.50871 165.713 3.49367C166.051 3.46019 166.39 3.4452 166.729 3.44875C167.055 3.44569 167.381 3.46068 167.706 3.49367C167.916 3.50591 168.123 3.55486 168.317 3.6384C168.438 3.69151 168.543 3.77786 168.619 3.88793C168.675 3.98298 168.703 4.09174 168.702 4.20234L168.644 24.6091Z" fill="#057EE7"/>
<path d="M187.379 17.3427C187.414 17.7714 187.289 18.1978 187.028 18.5354C186.902 18.6682 186.749 18.7716 186.581 18.8388C186.412 18.906 186.231 18.9353 186.051 18.9247H176.732C176.726 19.5365 176.803 20.1462 176.961 20.7363C177.1 21.2514 177.354 21.7264 177.704 22.1237C178.063 22.5177 178.51 22.8158 179.008 22.9921C179.624 23.2056 180.272 23.307 180.922 23.2915C181.59 23.2997 182.258 23.2429 182.915 23.1218C183.41 23.0292 183.899 22.9076 184.38 22.7575C184.796 22.6228 185.142 22.498 185.416 22.3882C185.629 22.2918 185.857 22.2343 186.09 22.2185C186.179 22.2161 186.267 22.2386 186.344 22.2834C186.423 22.3358 186.483 22.4128 186.515 22.503C186.57 22.6448 186.603 22.7947 186.612 22.9471C186.612 23.1418 186.637 23.3863 186.637 23.6758C186.637 23.9652 186.637 24.1748 186.637 24.3345C186.631 24.4902 186.614 24.6452 186.588 24.7987C186.569 24.9113 186.535 25.0206 186.485 25.1231C186.436 25.2152 186.375 25.3007 186.305 25.3776C186.122 25.5247 185.915 25.6379 185.694 25.712C185.281 25.8792 184.856 26.0176 184.424 26.1262C183.841 26.2739 183.251 26.3905 182.656 26.4755C181.951 26.5783 181.239 26.6283 180.527 26.6253C179.313 26.6487 178.104 26.47 176.947 26.0962C175.978 25.7818 175.097 25.2341 174.378 24.4992C173.663 23.737 173.137 22.8113 172.844 21.7993C172.492 20.5579 172.327 19.2687 172.356 17.9765C172.338 16.7013 172.517 15.4313 172.888 14.2135C173.205 13.1667 173.731 12.1982 174.431 11.3689C175.11 10.5902 175.953 9.98076 176.898 9.5872C177.938 9.16377 179.051 8.95514 180.17 8.97335C181.292 8.94518 182.409 9.14185 183.457 9.55227C184.316 9.90459 185.083 10.4545 185.699 11.1593C186.293 11.8658 186.731 12.6947 186.984 13.5897C187.269 14.5795 187.409 15.6072 187.399 16.639L187.379 17.3427ZM183.179 16.08C183.269 15.0499 183.01 14.0194 182.446 13.1605C182.159 12.7964 181.789 12.5093 181.369 12.3241C180.948 12.1389 180.49 12.0611 180.034 12.0975C179.539 12.0855 179.049 12.1932 178.603 12.4119C178.206 12.6138 177.86 12.9057 177.592 13.2653C177.308 13.6423 177.098 14.0707 176.971 14.5279C176.826 15.0329 176.743 15.5542 176.722 16.08H183.179Z" fill="#057EE7"/>
<path d="M200 24.0796C200.01 24.4763 199.977 24.8729 199.902 25.2623C199.882 25.4631 199.805 25.6535 199.68 25.8097C199.555 25.9659 199.388 26.081 199.199 26.1407C198.972 26.2386 198.736 26.3154 198.496 26.3703C198.207 26.4384 197.916 26.4884 197.621 26.52C197.305 26.554 196.987 26.5707 196.669 26.5699C195.912 26.5859 195.158 26.4746 194.437 26.2405C193.84 26.0374 193.302 25.6839 192.874 25.2124C192.442 24.7078 192.132 24.1059 191.97 23.4557C191.763 22.6414 191.666 21.8017 191.682 20.9604V12.9754H189.841C189.626 12.9754 189.46 12.8406 189.353 12.5662C189.215 12.1212 189.157 11.6546 189.182 11.1887C189.179 10.9003 189.193 10.6119 189.226 10.3254C189.245 10.1376 189.288 9.95311 189.353 9.77638C189.384 9.66392 189.445 9.56223 189.528 9.48194C189.618 9.42114 189.724 9.3898 189.831 9.39211H191.653V5.89866C191.651 5.78659 191.684 5.67678 191.746 5.58425C191.834 5.47273 191.953 5.39099 192.088 5.34969C192.304 5.27254 192.529 5.22553 192.757 5.20995C193.454 5.15007 194.155 5.15007 194.852 5.20995C195.079 5.22434 195.302 5.27138 195.516 5.34969C195.649 5.39501 195.767 5.47605 195.858 5.58425C195.926 5.67405 195.963 5.78497 195.961 5.89866V9.39211H199.297C199.404 9.39043 199.51 9.42172 199.599 9.48194C199.696 9.55478 199.769 9.65561 199.809 9.7714C199.879 9.94707 199.923 10.1319 199.941 10.3204C199.973 10.607 199.988 10.8953 199.985 11.1837C200.011 11.6501 199.951 12.1172 199.809 12.5612C199.781 12.6733 199.718 12.7733 199.63 12.8469C199.543 12.9204 199.434 12.9636 199.321 12.9704H195.971V20.3216C195.928 20.987 196.065 21.6515 196.366 22.243C196.524 22.468 196.737 22.6462 196.984 22.7593C197.231 22.8724 197.504 22.9164 197.773 22.8868C197.981 22.8873 198.189 22.8656 198.393 22.8219C198.559 22.7876 198.722 22.7408 198.881 22.6822L199.243 22.5424C199.326 22.5056 199.416 22.4853 199.507 22.4826C199.578 22.4831 199.647 22.5038 199.707 22.5424C199.781 22.6049 199.833 22.691 199.853 22.787C199.894 22.9512 199.925 23.1179 199.946 23.2861C199.981 23.5491 199.999 23.8141 200 24.0796V24.0796Z" fill="#057EE7"/>
</g>
<defs>
<clipPath id="clip0_1_24056">
<rect width="200" height="28.5714" fill="white"/>
</clipPath>
</defs>
</svg>
