<svg width="33" height="32" viewBox="0 0 33 32" fill="none" xmlns="http://www.w3.org/2000/svg">
<g clip-path="url(#clip0_119_2472)">
<path d="M16.5 5.78503C16.8452 5.78503 17.125 5.50521 17.125 5.16003C17.125 4.81486 16.8452 4.53503 16.5 4.53503C16.1548 4.53503 15.875 4.81486 15.875 5.16003C15.875 5.50521 16.1548 5.78503 16.5 5.78503Z" fill="black"/>
<path d="M29.9951 1.46472H3.00487C1.62369 1.46472 0.5 2.58841 0.5 3.9696V25.1272C0.5 26.5084 1.62369 27.6321 3.00487 27.6321H13.64V29.9119C13.64 30.41 14.2218 30.7117 14.6288 30.4225L16.5 29.0937L18.3711 30.4224C18.7787 30.7118 19.3599 30.4094 19.3599 29.9118V27.632H29.9951C31.3762 27.632 32.4999 26.5083 32.4999 25.1272V3.9696C32.5 2.58841 31.3763 1.46472 29.9951 1.46472ZM16.5 25.2777C15.6137 25.2777 14.8927 24.5567 14.8927 23.6703C14.8927 22.784 15.6137 22.063 16.5 22.063C17.3863 22.063 18.1073 22.784 18.1073 23.6703C18.1073 24.5567 17.3863 25.2777 16.5 25.2777ZM18.1075 28.6991L16.8626 27.815C16.7566 27.7398 16.6299 27.6993 16.5 27.6993C16.37 27.6993 16.2433 27.7398 16.1374 27.815L14.8924 28.6991V26.0342C15.3509 26.3469 15.9044 26.5302 16.4999 26.5302C17.0955 26.5302 17.649 26.3469 18.1074 26.0342V28.6991H18.1075ZM31.2476 25.1272C31.2476 25.8178 30.6857 26.3796 29.9951 26.3796H19.3599V24.5628H26.2252C26.571 24.5628 26.8514 24.2825 26.8514 23.9366C26.8514 22.8732 27.7132 22.0072 28.7751 22.0004C28.785 22.0008 28.7948 22.001 28.8047 22.001C29.1505 22.001 29.4309 21.7207 29.4309 21.3748V7.72191C29.4309 7.3761 29.1506 7.09566 28.8047 7.09566C28.7952 7.09566 28.7859 7.09585 28.7763 7.09622C27.7139 7.09003 26.8515 6.22385 26.8515 5.16003C26.8515 4.81422 26.5711 4.53378 26.2253 4.53378H19.3071C18.9613 4.53378 18.6808 4.81416 18.6808 5.16003C18.6808 5.50585 18.9612 5.78628 19.3071 5.78628H25.6608C25.9132 7.04885 26.9136 8.04466 28.1785 8.29041V20.8064C26.9136 21.0521 25.9132 22.048 25.6608 23.3105H19.3363C19.1587 21.903 17.9549 20.8107 16.5 20.8107C15.0451 20.8107 13.8413 21.903 13.6637 23.3105H7.28594C7.03556 22.0714 6.05825 21.0827 4.8215 20.8182V8.28672C6.07775 8.03503 7.06988 7.04266 7.321 5.78622H13.6929C14.0387 5.78622 14.3191 5.50585 14.3191 5.15997C14.3191 4.81416 14.0387 4.53372 13.6929 4.53372H6.75663C6.41081 4.53372 6.13037 4.8141 6.13037 5.15997C6.13037 6.22716 5.26219 7.09578 4.19506 7.09622C3.84931 7.09635 3.56906 7.37666 3.56906 7.72247V21.3748C3.56906 21.7172 3.84419 21.9962 4.18663 22.001C5.23938 22.0156 6.09594 22.8839 6.09594 23.9367C6.09594 24.2825 6.37631 24.5629 6.72219 24.5629H13.6401V26.3797H3.00487C2.31425 26.3797 1.75244 25.8178 1.75244 25.1272V3.9696C1.75244 3.27897 2.31425 2.71716 3.00487 2.71716H29.9951C30.6857 2.71716 31.2475 3.27897 31.2475 3.9696V25.1272H31.2476Z" fill="black"/>
<path d="M23.576 15.5295L21.9709 15.2963L21.2532 13.8418C21.2014 13.737 21.1214 13.6488 21.0222 13.5871C20.923 13.5255 20.8085 13.4928 20.6916 13.4928C20.5748 13.4928 20.4602 13.5255 20.361 13.5871C20.2618 13.6488 20.1818 13.737 20.13 13.8418L19.4123 15.2963L17.8072 15.5295C17.6916 15.5463 17.583 15.5952 17.4937 15.6705C17.4043 15.7458 17.3379 15.8446 17.3018 15.9557C17.2657 16.0668 17.2614 16.1858 17.2894 16.2993C17.3173 16.4127 17.3765 16.5161 17.4601 16.5976L18.6215 17.7298L18.3474 19.3283C18.3276 19.4435 18.3405 19.5619 18.3845 19.6702C18.4285 19.7784 18.5019 19.8722 18.5965 19.9409C18.691 20.0096 18.8029 20.0504 18.9195 20.0588C19.036 20.0673 19.1526 20.0429 19.256 19.9885L20.6917 19.2337L22.1274 19.9885C22.2308 20.0428 22.3474 20.0672 22.4639 20.0588C22.5805 20.0504 22.6923 20.0095 22.7869 19.9408C22.8814 19.8722 22.9548 19.7784 22.9988 19.6701C23.0429 19.5619 23.0557 19.4435 23.0359 19.3283L22.7617 17.7298L23.9232 16.5976C24.0068 16.5161 24.066 16.4127 24.094 16.2993C24.122 16.1858 24.1177 16.0668 24.0816 15.9557C24.0455 15.8445 23.979 15.7457 23.8897 15.6704C23.8003 15.5951 23.6917 15.5462 23.576 15.5295ZM21.6517 17.0627C21.579 17.1336 21.5246 17.2211 21.4932 17.3176C21.4619 17.4142 21.4544 17.5169 21.4715 17.617L21.5869 18.2895L20.983 17.972C20.8931 17.9247 20.7931 17.9 20.6916 17.9C20.59 17.9 20.49 17.9247 20.4002 17.972L19.7963 18.2895L19.9116 17.617C19.9288 17.5169 19.9213 17.4142 19.8899 17.3176C19.8586 17.2211 19.8042 17.1336 19.7315 17.0627L19.2429 16.5865L19.9181 16.4884C20.0186 16.4738 20.114 16.435 20.1961 16.3753C20.2783 16.3156 20.3447 16.2369 20.3896 16.1458L20.6915 15.534L20.9935 16.1458C21.0384 16.2369 21.1048 16.3156 21.187 16.3753C21.2691 16.435 21.3645 16.4738 21.465 16.4884L22.1402 16.5865L21.6517 17.0627ZM15.1929 15.5295L13.5877 15.2963L12.87 13.8418C12.8183 13.737 12.7383 13.6488 12.639 13.5871C12.5398 13.5255 12.4253 13.4928 12.3084 13.4928C12.1916 13.4928 12.0771 13.5255 11.9778 13.5871C11.8786 13.6488 11.7986 13.737 11.7469 13.8418L11.0291 15.2963L9.42398 15.5295C9.30837 15.5463 9.19977 15.5952 9.11046 15.6705C9.02116 15.7458 8.9547 15.8446 8.91859 15.9557C8.88249 16.0668 8.87819 16.1858 8.90616 16.2993C8.93414 16.4127 8.99329 16.5161 9.07692 16.5976L10.2384 17.7298L9.96417 19.3283C9.94441 19.4435 9.95727 19.5619 10.0013 19.6701C10.0453 19.7783 10.1187 19.8721 10.2133 19.9408C10.3078 20.0095 10.4197 20.0503 10.5362 20.0588C10.6527 20.0672 10.7693 20.0428 10.8727 19.9885L12.3084 19.2337L13.744 19.9885C13.8475 20.0428 13.964 20.0672 14.0806 20.0588C14.1971 20.0504 14.309 20.0095 14.4036 19.9408C14.4981 19.8722 14.5715 19.7784 14.6155 19.6701C14.6596 19.5619 14.6724 19.4435 14.6527 19.3283L14.3785 17.7298L15.5399 16.5976C15.6236 16.5161 15.6828 16.4127 15.7108 16.2993C15.7388 16.1858 15.7345 16.0668 15.6984 15.9557C15.6623 15.8445 15.5958 15.7457 15.5065 15.6704C15.4171 15.5951 15.3085 15.5463 15.1929 15.5295ZM13.2685 17.0627C13.1958 17.1336 13.1414 17.2211 13.11 17.3176C13.0787 17.4142 13.0712 17.5169 13.0884 17.617L13.2037 18.2895L12.5998 17.972C12.5099 17.9247 12.4099 17.9 12.3084 17.9C12.2069 17.9 12.1069 17.9247 12.017 17.972L11.4131 18.2895L11.5285 17.617C11.5456 17.5169 11.5382 17.4142 11.5068 17.3176C11.4754 17.2211 11.4211 17.1336 11.3484 17.0627L10.8597 16.5865L11.535 16.4884C11.6354 16.4738 11.7309 16.435 11.813 16.3753C11.8951 16.3156 11.9615 16.2369 12.0065 16.1458L12.3084 15.534L12.6104 16.1458C12.6553 16.2369 12.7217 16.3156 12.8038 16.3753C12.886 16.435 12.9814 16.4738 13.0819 16.4884L13.7571 16.5865L13.2685 17.0627ZM9.0166 8.89383C9.0166 9.23964 9.29698 9.52008 9.64285 9.52008H23.3572C23.703 9.52008 23.9834 9.2397 23.9834 8.89383C23.9834 8.54795 23.703 8.26758 23.3572 8.26758H9.64285C9.29698 8.26758 9.0166 8.54795 9.0166 8.89383ZM22.715 11.3987C22.715 11.0529 22.4346 10.7725 22.0887 10.7725H10.9112C10.5654 10.7725 10.2849 11.0528 10.2849 11.3987C10.2849 11.7446 10.5653 12.025 10.9112 12.025H22.0887C22.4346 12.0249 22.715 11.7445 22.715 11.3987Z" fill="black"/>
</g>
<defs>
<clipPath id="clip0_119_2472">
<rect width="32" height="32" fill="white" transform="translate(0.5)"/>
</clipPath>
</defs>
</svg>
