<svg width="23" height="24" viewBox="0 0 23 24" fill="none" xmlns="http://www.w3.org/2000/svg">
<path d="M21.1289 10.882C20.8637 10.882 20.6093 10.7766 20.4218 10.5891C20.2343 10.4016 20.1289 10.1472 20.1289 9.882C20.1289 7.077 19.0369 4.441 17.0539 2.457C16.8664 2.26949 16.7611 2.01518 16.7611 1.75C16.7611 1.48482 16.8664 1.23051 17.0539 1.043C17.2414 0.855492 17.4957 0.750151 17.7609 0.750151C18.0261 0.750151 18.2804 0.855492 18.4679 1.043C19.6323 2.20106 20.5554 3.57856 21.1838 5.09578C21.8122 6.613 22.1334 8.2398 22.1289 9.882C22.1289 10.1472 22.0236 10.4016 21.836 10.5891C21.6485 10.7766 21.3941 10.882 21.1289 10.882ZM1.12891 10.882C0.86369 10.882 0.609336 10.7766 0.421799 10.5891C0.234263 10.4016 0.128906 10.1472 0.128906 9.882C0.128906 6.543 1.42891 3.404 3.78991 1.043C3.97741 0.855492 4.23173 0.750151 4.49691 0.750151C4.76208 0.750151 5.0164 0.855492 5.20391 1.043C5.39141 1.23051 5.49676 1.48482 5.49676 1.75C5.49676 2.01518 5.39141 2.26949 5.20391 2.457C4.22589 3.42985 3.45053 4.587 2.92271 5.8615C2.39489 7.136 2.12508 8.50253 2.12891 9.882C2.12891 10.1472 2.02355 10.4016 1.83601 10.5891C1.64848 10.7766 1.39412 10.882 1.12891 10.882ZM20.5079 16.913C19.7619 16.2837 19.1625 15.4989 18.7515 14.6136C18.3406 13.7284 18.1281 12.764 18.1289 11.788V9C18.1289 5.481 15.5149 2.568 12.1289 2.08V1C12.1289 0.734784 12.0235 0.48043 11.836 0.292893C11.6485 0.105357 11.3941 0 11.1289 0C10.8637 0 10.6093 0.105357 10.4218 0.292893C10.2343 0.48043 10.1289 0.734784 10.1289 1V2.08C6.74191 2.568 4.12891 5.481 4.12891 9V11.788C4.12929 12.766 3.91574 13.7322 3.50322 14.6189C3.0907 15.5056 2.4892 16.2913 1.74091 16.921C1.47047 17.1541 1.27771 17.4643 1.18845 17.81C1.09919 18.1557 1.11769 18.5205 1.24148 18.8554C1.36526 19.1903 1.58841 19.4794 1.88106 19.684C2.1737 19.8885 2.52186 19.9988 2.87891 20H19.3789C20.3439 20 21.1289 19.215 21.1289 18.25C21.1289 17.738 20.9059 17.254 20.5079 16.913ZM11.1289 24C11.9929 23.9988 12.8301 23.6998 13.4994 23.1533C14.1686 22.6068 14.629 21.8463 14.8029 21H7.45491C7.62881 21.8463 8.08919 22.6068 8.75844 23.1533C9.42769 23.6998 10.2649 23.9988 11.1289 24Z" fill="#D9D9D9"/>
</svg>
