<svg width="20" height="20" viewBox="0 0 20 20" fill="none" xmlns="http://www.w3.org/2000/svg">
<path d="M11.2578 2.6043V2.9749L11.6124 3.08268C13.8922 3.77566 15.5547 5.89779 15.5547 8.39844V9.68211C15.5547 12.2068 16.5177 14.6026 18.2652 16.4249L18.6261 16.0788L18.2652 16.4249C18.2768 16.4371 18.2847 16.4524 18.2877 16.4689C18.2907 16.4855 18.2888 16.5026 18.2822 16.5181L18.7421 16.7143L18.2822 16.5181C18.2756 16.5336 18.2646 16.5468 18.2505 16.5561C18.2365 16.5654 18.22 16.5703 18.2032 16.5703H1.79688H1.79679C1.77995 16.5703 1.76348 16.5654 1.74944 16.5561C1.73539 16.5468 1.72437 16.5336 1.71777 16.5181C1.71116 16.5026 1.70925 16.4855 1.71228 16.469C1.7153 16.4524 1.72313 16.4371 1.73479 16.425L1.73485 16.4249C3.48228 14.6026 4.44532 12.2069 4.44532 9.68211V8.39844C4.44532 5.89775 6.10782 3.77566 8.38761 3.08268L8.7422 2.9749V2.6043V1.75781C8.7422 1.0647 9.30689 0.5 10 0.5C10.6931 0.5 11.2578 1.0647 11.2578 1.75781V2.6043ZM10.538 2.86988L11.0859 2.92271V2.37219V1.75781C11.0859 1.15858 10.5992 0.671875 10 0.671875C9.40078 0.671875 8.91407 1.15858 8.91407 1.75781V2.37219V2.92271L9.46206 2.86988C9.63956 2.85277 9.81897 2.84375 10 2.84375C10.1811 2.84375 10.3605 2.85277 10.538 2.86988ZM4.26028 2.65871L4.26028 2.65872C2.72785 4.19119 1.88282 6.23122 1.88282 8.39844C1.88282 8.44589 1.84434 8.48438 1.79688 8.48438C1.74943 8.48438 1.71095 8.44589 1.71095 8.39844C1.71095 6.18339 2.57249 4.10346 4.13876 2.53719C4.17234 2.5036 4.22675 2.50365 4.26025 2.53716L4.26028 2.53719C4.29385 2.57075 4.29385 2.62515 4.26028 2.65871ZM8.23942 18.7422H11.7606C11.3172 19.2091 10.6914 19.5 10 19.5C9.30861 19.5 8.68279 19.2091 8.23942 18.7422ZM18.2031 8.48438C18.1557 8.48438 18.1172 8.44589 18.1172 8.39844C18.1172 6.23118 17.2722 4.19115 15.7397 2.65867C15.7062 2.62511 15.7062 2.57071 15.7397 2.53715L15.3862 2.18359L15.7397 2.53715C15.7733 2.5036 15.8277 2.5036 15.8613 2.53715C17.4275 4.10342 18.2891 6.18339 18.2891 8.39844C18.2891 8.44589 18.2506 8.48438 18.2031 8.48438Z" stroke="white"/>
</svg>
