<svg width="24" height="23" viewBox="0 0 24 23" fill="none" xmlns="http://www.w3.org/2000/svg">
<path d="M11.35 3.58732C11.285 3.7837 11.25 3.99225 11.25 4.20827C11.25 4.59544 11.586 4.90966 12 4.90966H16.5C16.6989 4.90966 16.8897 4.83576 17.0303 4.70423C17.171 4.57269 17.25 4.39429 17.25 4.20827C17.2501 3.99778 17.2164 3.78846 17.15 3.58732M11.35 3.58732C11.492 3.15779 11.7774 2.78207 12.1643 2.51517C12.5511 2.24828 13.0192 2.10423 13.5 2.10413H15C16.012 2.10413 16.867 2.72882 17.15 3.58732M11.35 3.58732C10.974 3.60883 10.6 3.63408 10.226 3.66213C9.095 3.75004 8.25 4.65061 8.25 5.71204V7.71519M17.15 3.58732C17.526 3.60883 17.9 3.63408 18.274 3.66213C19.405 3.75004 20.25 4.65061 20.25 5.71204V15.4304C20.25 15.9885 20.0129 16.5237 19.591 16.9183C19.169 17.3129 18.5967 17.5345 18 17.5345H15.75M8.25 7.71519H4.875C4.254 7.71519 3.75 8.18652 3.75 8.76726V19.288C3.75 19.8687 4.254 20.3401 4.875 20.3401H14.625C15.246 20.3401 15.75 19.8687 15.75 19.288V17.5345M8.25 7.71519H14.625C15.246 7.71519 15.75 8.18652 15.75 8.76726V17.5345M7.5 14.729L9 16.1318L12 12.6249" stroke="#5E84A3" stroke-width="1.5" stroke-linecap="round" stroke-linejoin="round"/>
</svg>
