<svg width="25" height="24" viewBox="0 0 25 24" fill="none" xmlns="http://www.w3.org/2000/svg">
<g clip-path="url(#clip0_1_24251)">
<path d="M18.6026 0H5.65522C4.19083 0.00416614 2.78761 0.587739 1.75213 1.62322C0.716645 2.65871 0.133072 4.06193 0.128906 5.52632L0.128906 18.4737C0.133072 19.9381 0.716645 21.3413 1.75213 22.3768C2.78761 23.4123 4.19083 23.9958 5.65522 24H18.6026C20.067 23.9958 21.4702 23.4123 22.5057 22.3768C23.5412 21.3413 24.1247 19.9381 24.1289 18.4737V5.52632C24.1247 4.06193 23.5412 2.65871 22.5057 1.62322C21.4702 0.587739 20.067 0.00416614 18.6026 0ZM17.0568 13.0342H13.4142C13.3861 13.034 13.3583 13.0394 13.3323 13.05C13.3064 13.0606 13.2828 13.0763 13.263 13.0962C13.2431 13.116 13.2274 13.1396 13.2168 13.1655C13.2062 13.1915 13.2008 13.2193 13.201 13.2474V16.8947C13.201 17.1791 13.0881 17.4518 12.887 17.6528C12.6859 17.8539 12.4132 17.9668 12.1289 17.9668C11.8446 17.9668 11.5719 17.8539 11.3708 17.6528C11.1698 17.4518 11.0568 17.1791 11.0568 16.8947V13.2474C11.057 13.2193 11.0516 13.1915 11.041 13.1655C11.0304 13.1396 11.0147 13.116 10.9948 13.0962C10.975 13.0763 10.9514 13.0606 10.9255 13.05C10.8995 13.0394 10.8717 13.034 10.8436 13.0342H7.20101C7.06022 13.0342 6.92081 13.0065 6.79073 12.9526C6.66066 12.8987 6.54247 12.8198 6.44292 12.7202C6.34336 12.6206 6.26439 12.5025 6.21052 12.3724C6.15664 12.2423 6.12891 12.1029 6.12891 11.9621C6.12891 11.8213 6.15664 11.6819 6.21052 11.5518C6.26439 11.4218 6.34336 11.3036 6.44292 11.204C6.54247 11.1045 6.66066 11.0255 6.79073 10.9716C6.92081 10.9177 7.06022 10.89 7.20101 10.89H10.8436C10.8717 10.8902 10.8995 10.8848 10.9255 10.8742C10.9514 10.8636 10.975 10.8479 10.9948 10.828C11.0147 10.8082 11.0304 10.7846 11.041 10.7587C11.0516 10.7327 11.057 10.7049 11.0568 10.6768V7.03421C11.0568 6.74987 11.1698 6.47718 11.3708 6.27612C11.5719 6.07506 11.8446 5.9621 12.1289 5.9621C12.4132 5.9621 12.6859 6.07506 12.887 6.27612C13.0881 6.47718 13.201 6.74987 13.201 7.03421V10.6768C13.2002 10.7053 13.2051 10.7336 13.2154 10.7601C13.2258 10.7866 13.2414 10.8108 13.2613 10.8311C13.2812 10.8515 13.305 10.8676 13.3312 10.8785C13.3575 10.8894 13.3857 10.895 13.4142 10.8947H17.0568C17.3411 10.8947 17.6138 11.0077 17.8149 11.2087C18.016 11.4098 18.1289 11.6825 18.1289 11.9668C18.1289 12.2512 18.016 12.5239 17.8149 12.7249C17.6138 12.926 17.3411 13.0389 17.0568 13.0389V13.0342Z" fill="#057EE7"/>
</g>
<defs>
<clipPath id="clip0_1_24251">
<rect width="24" height="24" fill="white" transform="translate(0.128906)"/>
</clipPath>
</defs>
</svg>
