<svg width="24" height="24" viewBox="0 0 24 24" fill="none" xmlns="http://www.w3.org/2000/svg">
<path d="M20.5097 18.7292L17.2273 15.6C18.2863 14.3099 18.861 12.7169 18.8588 11.0769C18.8588 9.61637 18.4059 8.18863 17.5572 6.97424C16.7086 5.75984 15.5023 4.81334 14.0911 4.25441C12.6798 3.69549 11.1269 3.54925 9.62872 3.83419C8.13053 4.11912 6.75436 4.82244 5.67423 5.8552C4.5941 6.88796 3.85852 8.20377 3.56052 9.63624C3.26251 11.0687 3.41546 12.5535 4.00002 13.9029C4.58458 15.2522 5.5745 16.4056 6.8446 17.217C8.1147 18.0284 9.60794 18.4615 11.1355 18.4615C12.8507 18.4636 14.5168 17.9141 15.866 16.9015L19.1388 20.04C19.2286 20.1265 19.3353 20.1952 19.453 20.242C19.5706 20.2889 19.6968 20.313 19.8243 20.313C19.9517 20.313 20.0779 20.2889 20.1955 20.242C20.3132 20.1952 20.42 20.1265 20.5097 20.04C20.6002 19.9542 20.672 19.8521 20.721 19.7396C20.77 19.6271 20.7953 19.5065 20.7953 19.3846C20.7953 19.2627 20.77 19.1421 20.721 19.0296C20.672 18.9171 20.6002 18.815 20.5097 18.7292ZM5.34295 11.0769C5.34295 9.98151 5.68268 8.9107 6.31917 7.99991C6.95566 7.08911 7.86033 6.37923 8.91877 5.96004C9.97722 5.54085 11.1419 5.43117 12.2655 5.64487C13.3892 5.85857 14.4213 6.38606 15.2314 7.16063C16.0415 7.93519 16.5932 8.92205 16.8167 9.99641C17.0402 11.0708 16.9255 12.1844 16.4871 13.1964C16.0486 14.2084 15.3062 15.0734 14.3536 15.682C13.401 16.2905 12.2811 16.6154 11.1355 16.6154C9.5992 16.6154 8.12585 16.0319 7.03954 14.9932C5.95323 13.9545 5.34295 12.5458 5.34295 11.0769Z" fill="#8CAAC5"/>
</svg>
