<svg width="24" height="24" viewBox="0 0 24 24" fill="none" xmlns="http://www.w3.org/2000/svg">
<path d="M5.5 20C5.1 20 4.75 19.85 4.45 19.55C4.15 19.25 4 18.9 4 18.5V15.675C4 15.4625 4.07229 15.2844 4.21688 15.1406C4.36148 14.9969 4.54064 14.925 4.75438 14.925C4.96813 14.925 5.14583 14.9969 5.2875 15.1406C5.42917 15.2844 5.5 15.4625 5.5 15.675V18.5H18.5V15.675C18.5 15.4625 18.5723 15.2844 18.7169 15.1406C18.8615 14.9969 19.0406 14.925 19.2544 14.925C19.4681 14.925 19.6458 14.9969 19.7875 15.1406C19.9292 15.2844 20 15.4625 20 15.675V18.5C20 18.9 19.85 19.25 19.55 19.55C19.25 19.85 18.9 20 18.5 20H5.5ZM11.25 6.89999L8.775 9.37499C8.62833 9.52499 8.45417 9.59582 8.2525 9.58749C8.05083 9.57915 7.87174 9.49999 7.71523 9.34999C7.57174 9.19999 7.5 9.02082 7.5 8.81249C7.5 8.60415 7.575 8.42499 7.725 8.27499L11.475 4.52499C11.5583 4.44165 11.6428 4.38332 11.7283 4.34999C11.8139 4.31665 11.9056 4.29999 12.0033 4.29999C12.1011 4.29999 12.1917 4.31665 12.275 4.34999C12.3583 4.38332 12.4417 4.44165 12.525 4.52499L16.3 8.29999C16.45 8.44999 16.525 8.62499 16.525 8.82499C16.525 9.02499 16.4533 9.19999 16.3098 9.34999C16.1533 9.49999 15.9708 9.57499 15.7625 9.57499C15.5542 9.57499 15.375 9.49999 15.225 9.34999L12.75 6.89999V15.425C12.75 15.6375 12.6777 15.8156 12.5331 15.9594C12.3885 16.1031 12.2094 16.175 11.9956 16.175C11.7819 16.175 11.6042 16.1031 11.4625 15.9594C11.3208 15.8156 11.25 15.6375 11.25 15.425V6.89999Z" fill="#074DB6"/>
</svg>
