<svg width="40" height="40" viewBox="0 0 40 40" fill="none" xmlns="http://www.w3.org/2000/svg">
<path d="M15.8333 9.99967H24.1666V5.83301H15.8333V9.99967ZM29.9999 38.0413C27.8055 38.0413 25.9166 37.2497 24.3333 35.6663C22.7499 34.083 21.9583 32.1941 21.9583 29.9997C21.9583 27.8052 22.7499 25.9163 24.3333 24.333C25.9166 22.7497 27.8055 21.958 29.9999 21.958C32.1944 21.958 34.0833 22.7497 35.6666 24.333C37.2499 25.9163 38.0416 27.8052 38.0416 29.9997C38.0416 32.1941 37.2499 34.083 35.6666 35.6663C34.0833 37.2497 32.1944 38.0413 29.9999 38.0413ZM5.83325 34.9997C5.16659 34.9997 4.58325 34.7497 4.08325 34.2497C3.58325 33.7497 3.33325 33.1663 3.33325 32.4997V12.4997C3.33325 11.833 3.58325 11.2497 4.08325 10.7497C4.58325 10.2497 5.16659 9.99967 5.83325 9.99967H13.3333V5.83301C13.3333 5.19412 13.5833 4.61773 14.0833 4.10384C14.5833 3.58995 15.1666 3.33301 15.8333 3.33301H24.1666C24.8333 3.33301 25.4166 3.58995 25.9166 4.10384C26.4166 4.61773 26.6666 5.19412 26.6666 5.83301V9.99967H34.1666C34.8333 9.99967 35.4166 10.2497 35.9166 10.7497C36.4166 11.2497 36.6666 11.833 36.6666 12.4997V21.8747C35.7221 21.0969 34.6805 20.4997 33.5416 20.083C32.4027 19.6663 31.2221 19.458 29.9999 19.458C27.111 19.458 24.6319 20.4927 22.5624 22.5622C20.493 24.6316 19.4583 27.1108 19.4583 29.9997C19.4583 30.9719 19.5624 31.833 19.7708 32.583C19.9791 33.333 20.3055 34.1386 20.7499 34.9997H5.83325ZM30.7083 29.9163V25.6247C30.7083 25.3747 30.6249 25.1663 30.4583 24.9997C30.2916 24.833 30.0833 24.7497 29.8333 24.7497C29.5833 24.7497 29.3749 24.833 29.2083 24.9997C29.0416 25.1663 28.9583 25.3747 28.9583 25.6247V29.8747C28.9583 30.0413 28.993 30.2011 29.0624 30.3538C29.1319 30.5066 29.236 30.6525 29.3749 30.7913L32.5416 33.708C32.6805 33.8469 32.861 33.9094 33.0833 33.8955C33.3055 33.8816 33.486 33.8052 33.6249 33.6663C33.7916 33.4997 33.868 33.3052 33.8541 33.083C33.8402 32.8608 33.7499 32.6802 33.5833 32.5413L30.7083 29.9163Z" fill="#057EE7"/>
</svg>
